<?xml version="1.0" encoding="UTF-8"?>
<svg xmlns="http://www.w3.org/2000/svg" xmlns:xlink="http://www.w3.org/1999/xlink" width="1100" height="620" viewBox="0 0 1100 620">
<defs>
<g>
<g id="glyph-0-0-98f15205">
<path d="M 7.328125 -3.59375 C 7.328125 -1.265625 6.078125 0.203125 4.1875 0.203125 C 3.234375 0.203125 2.546875 -0.125 1.9375 -0.875 C 1.9375 -0.875 1.9375 3.046875 1.9375 3.046875 C 1.9375 3.046875 0.765625 3.046875 0.765625 3.046875 C 0.765625 3.046875 0.765625 -7.34375 0.765625 -7.34375 C 0.765625 -7.34375 1.828125 -7.34375 1.828125 -7.34375 C 1.828125 -7.34375 1.828125 -6.234375 1.828125 -6.234375 C 2.375 -7.09375 3.171875 -7.546875 4.171875 -7.546875 C 6.125 -7.546875 7.328125 -6.0625 7.328125 -3.59375 Z M 6.109375 -3.625 C 6.109375 -5.375 5.265625 -6.453125 3.96875 -6.453125 C 2.75 -6.453125 1.9375 -5.328125 1.9375 -3.609375 C 1.9375 -1.890625 2.75 -0.875 3.96875 -0.875 C 5.25 -0.875 6.109375 -1.953125 6.109375 -3.625 Z M 6.109375 -3.625 "/>
</g>
<g id="glyph-0-1-98f15205">
<path d="M 7.484375 -0.03125 C 7.109375 0.0625 6.9375 0.09375 6.6875 0.09375 C 6.125 0.09375 5.609375 -0.3125 5.484375 -0.875 C 4.84375 -0.1875 3.9375 0.203125 3 0.203125 C 1.515625 0.203125 0.59375 -0.578125 0.59375 -1.90625 C 0.59375 -2.796875 1.015625 -3.453125 1.875 -3.8125 C 2.328125 -3.984375 2.578125 -4.046875 4.234375 -4.25 C 5.15625 -4.375 5.453125 -4.578125 5.453125 -5.0625 C 5.453125 -5.0625 5.453125 -5.375 5.453125 -5.375 C 5.453125 -6.078125 4.859375 -6.46875 3.8125 -6.46875 C 2.71875 -6.46875 2.1875 -6.0625 2.09375 -5.171875 C 2.09375 -5.171875 0.90625 -5.171875 0.90625 -5.171875 C 0.984375 -6.859375 2.078125 -7.546875 3.84375 -7.546875 C 5.65625 -7.546875 6.609375 -6.84375 6.609375 -5.546875 C 6.609375 -5.546875 6.609375 -1.453125 6.609375 -1.453125 C 6.609375 -1.09375 6.828125 -0.875 7.234375 -0.875 C 7.3125 -0.875 7.359375 -0.875 7.484375 -0.90625 C 7.484375 -0.90625 7.484375 -0.03125 7.484375 -0.03125 Z M 5.453125 -2.53125 C 5.453125 -2.53125 5.453125 -3.625 5.453125 -3.625 C 5.046875 -3.4375 4.796875 -3.390625 3.5625 -3.21875 C 2.328125 -3.03125 1.8125 -2.703125 1.8125 -1.9375 C 1.8125 -1.140625 2.34375 -0.8125 3.25 -0.8125 C 4.375 -0.8125 5.453125 -1.484375 5.453125 -2.53125 Z M 5.453125 -2.53125 "/>
</g>
<g id="glyph-0-2-98f15205">
<path d="M 6.671875 -2.515625 C 6.53125 -0.84375 5.4375 0.203125 3.6875 0.203125 C 1.6875 0.203125 0.4375 -1.234375 0.4375 -3.59375 C 0.4375 -6.03125 1.71875 -7.546875 3.703125 -7.546875 C 5.328125 -7.546875 6.453125 -6.65625 6.59375 -4.875 C 6.59375 -4.875 5.421875 -4.875 5.421875 -4.875 C 5.28125 -5.890625 4.65625 -6.46875 3.6875 -6.46875 C 2.40625 -6.46875 1.65625 -5.4375 1.65625 -3.59375 C 1.65625 -1.859375 2.421875 -0.875 3.703125 -0.875 C 4.703125 -0.875 5.3125 -1.34375 5.5 -2.515625 C 5.5 -2.515625 6.671875 -2.515625 6.671875 -2.515625 Z M 6.671875 -2.515625 "/>
</g>
<g id="glyph-0-3-98f15205">
<path d="M 7.03125 0 C 7.03125 0 5.59375 0 5.59375 0 C 5.59375 0 3.109375 -3.96875 3.109375 -3.96875 C 3.109375 -3.96875 1.96875 -2.859375 1.96875 -2.859375 C 1.96875 -2.859375 1.96875 0 1.96875 0 C 1.96875 0 0.8125 0 0.8125 0 C 0.8125 0 0.8125 -10.203125 0.8125 -10.203125 C 0.8125 -10.203125 1.96875 -10.203125 1.96875 -10.203125 C 1.96875 -10.203125 1.96875 -4.234375 1.96875 -4.234375 C 1.96875 -4.234375 5.078125 -7.34375 5.078125 -7.34375 C 5.078125 -7.34375 6.578125 -7.34375 6.578125 -7.34375 C 6.578125 -7.34375 4.03125 -4.796875 4.03125 -4.796875 C 4.03125 -4.796875 7.03125 0 7.03125 0 Z M 7.03125 0 "/>
</g>
<g id="glyph-0-4-98f15205">
<path d="M 6.84375 -1.203125 C 6.84375 2.03125 5.859375 3.046875 3.5625 3.046875 C 1.84375 3.046875 0.765625 2.21875 0.640625 0.84375 C 0.640625 0.84375 1.828125 0.84375 1.828125 0.84375 C 1.96875 1.734375 2.6875 2.078125 3.609375 2.078125 C 4.96875 2.078125 5.765625 1.328125 5.765625 -0.609375 C 5.765625 -0.609375 5.765625 -1.109375 5.765625 -1.109375 C 5 -0.1875 4.359375 0.203125 3.4375 0.203125 C 1.703125 0.203125 0.40625 -1.28125 0.40625 -3.59375 C 0.40625 -5.984375 1.671875 -7.546875 3.53125 -7.546875 C 4.46875 -7.546875 5.1875 -7.140625 5.765625 -6.265625 C 5.765625 -6.265625 5.765625 -7.34375 5.765625 -7.34375 C 5.765625 -7.34375 6.84375 -7.34375 6.84375 -7.34375 C 6.84375 -7.34375 6.84375 -1.203125 6.84375 -1.203125 Z M 5.65625 -3.625 C 5.65625 -5.40625 4.90625 -6.46875 3.65625 -6.46875 C 2.40625 -6.46875 1.625 -5.4375 1.625 -3.671875 C 1.625 -1.890625 2.390625 -0.875 3.671875 -0.875 C 4.90625 -0.875 5.65625 -1.875 5.65625 -3.625 Z M 5.65625 -3.625 "/>
</g>
<g id="glyph-0-5-98f15205">
<path d="M 7.1875 -3.328125 C 7.1875 -3.328125 1.78125 -3.328125 1.78125 -3.328125 C 1.8125 -1.65625 2.71875 -0.875 3.9375 -0.875 C 4.875 -0.875 5.53125 -1.265625 5.859375 -2.21875 C 5.859375 -2.21875 7.03125 -2.21875 7.03125 -2.21875 C 6.734375 -0.734375 5.578125 0.203125 3.890625 0.203125 C 1.828125 0.203125 0.5625 -1.21875 0.5625 -3.625 C 0.5625 -6.03125 1.875 -7.546875 3.921875 -7.546875 C 5.296875 -7.546875 6.40625 -6.8125 6.890625 -5.609375 C 7.09375 -5.0625 7.1875 -4.390625 7.1875 -3.328125 Z M 5.9375 -4.375 C 5.9375 -5.515625 5.046875 -6.46875 3.90625 -6.46875 C 2.734375 -6.46875 1.90625 -5.59375 1.8125 -4.28125 C 1.8125 -4.28125 5.921875 -4.28125 5.921875 -4.28125 C 5.9375 -4.3125 5.9375 -4.375 5.9375 -4.375 Z M 5.9375 -4.375 "/>
</g>
<g id="glyph-0-6-98f15205">
</g>
<g id="glyph-0-7-98f15205">
<path d="M 6.796875 -7.34375 C 6.796875 -7.34375 3.984375 0 3.984375 0 C 3.984375 0 2.71875 0 2.71875 0 C 2.71875 0 0.140625 -7.34375 0.140625 -7.34375 C 0.140625 -7.34375 1.453125 -7.34375 1.453125 -7.34375 C 1.453125 -7.34375 3.421875 -1.390625 3.421875 -1.390625 C 3.421875 -1.390625 5.484375 -7.34375 5.484375 -7.34375 C 5.484375 -7.34375 6.796875 -7.34375 6.796875 -7.34375 Z M 6.796875 -7.34375 "/>
</g>
<g id="glyph-0-8-98f15205">
<path d="M 4.5 -6.3125 C 2.6875 -6.28125 2.140625 -5.453125 2.140625 -3.8125 C 2.140625 -3.8125 2.140625 0 2.140625 0 C 2.140625 0 0.984375 0 0.984375 0 C 0.984375 0 0.984375 -7.34375 0.984375 -7.34375 C 0.984375 -7.34375 2.046875 -7.34375 2.046875 -7.34375 C 2.046875 -7.34375 2.046875 -6 2.046875 -6 C 2.71875 -7.09375 3.296875 -7.546875 4.046875 -7.546875 C 4.203125 -7.546875 4.296875 -7.53125 4.5 -7.5 C 4.5 -7.5 4.5 -6.3125 4.5 -6.3125 Z M 4.5 -6.3125 "/>
</g>
<g id="glyph-0-9-98f15205">
<path d="M 6.421875 -2.0625 C 6.421875 -0.640625 5.25 0.203125 3.40625 0.203125 C 1.484375 0.203125 0.53125 -0.546875 0.46875 -2.234375 C 0.46875 -2.234375 1.703125 -2.234375 1.703125 -2.234375 C 1.859375 -1.125 2.453125 -0.875 3.5 -0.875 C 4.515625 -0.875 5.203125 -1.28125 5.203125 -1.953125 C 5.203125 -2.484375 4.890625 -2.734375 4.078125 -2.921875 C 4.078125 -2.921875 2.984375 -3.1875 2.984375 -3.1875 C 1.25 -3.609375 0.65625 -4.15625 0.65625 -5.3125 C 0.65625 -6.65625 1.765625 -7.546875 3.46875 -7.546875 C 5.171875 -7.546875 6.125 -6.734375 6.125 -5.296875 C 6.125 -5.296875 4.90625 -5.296875 4.90625 -5.296875 C 4.875 -6.0625 4.375 -6.46875 3.4375 -6.46875 C 2.484375 -6.46875 1.875 -6.03125 1.875 -5.359375 C 1.875 -4.84375 2.28125 -4.53125 3.234375 -4.3125 C 3.234375 -4.3125 4.359375 -4.046875 4.359375 -4.046875 C 5.8125 -3.703125 6.421875 -3.15625 6.421875 -2.0625 Z M 6.421875 -2.0625 "/>
</g>
<g id="glyph-0-10-98f15205">
<path d="M 2.140625 0 C 2.140625 0 0.984375 0 0.984375 0 C 0.984375 0 0.984375 -7.34375 0.984375 -7.34375 C 0.984375 -7.34375 2.140625 -7.34375 2.140625 -7.34375 C 2.140625 -7.34375 2.140625 0 2.140625 0 Z M 2.296875 -8.4375 C 2.296875 -8.4375 0.84375 -8.4375 0.84375 -8.4375 C 0.84375 -8.4375 0.84375 -9.890625 0.84375 -9.890625 C 0.84375 -9.890625 2.296875 -9.890625 2.296875 -9.890625 C 2.296875 -9.890625 2.296875 -8.4375 2.296875 -8.4375 Z M 2.296875 -8.4375 "/>
</g>
<g id="glyph-0-11-98f15205">
<path d="M 7.140625 -3.609375 C 7.140625 -1.203125 5.875 0.203125 3.828125 0.203125 C 1.734375 0.203125 0.5 -1.203125 0.5 -3.671875 C 0.5 -6.125 1.75 -7.546875 3.8125 -7.546875 C 5.921875 -7.546875 7.140625 -6.140625 7.140625 -3.609375 Z M 5.921875 -3.625 C 5.921875 -5.453125 5.140625 -6.46875 3.828125 -6.46875 C 2.515625 -6.46875 1.71875 -5.4375 1.71875 -3.671875 C 1.71875 -1.890625 2.515625 -0.875 3.828125 -0.875 C 5.109375 -0.875 5.921875 -1.90625 5.921875 -3.625 Z M 5.921875 -3.625 "/>
</g>
<g id="glyph-0-12-98f15205">
<path d="M 6.8125 0 C 6.8125 0 5.65625 0 5.65625 0 C 5.65625 0 5.65625 -5.078125 5.65625 -5.078125 C 5.65625 -5.96875 5.0625 -6.53125 4.140625 -6.53125 C 2.953125 -6.53125 2.140625 -5.546875 2.140625 -4.046875 C 2.140625 -4.046875 2.140625 0 2.140625 0 C 2.140625 0 0.984375 0 0.984375 0 C 0.984375 0 0.984375 -7.34375 0.984375 -7.34375 C 0.984375 -7.34375 2.0625 -7.34375 2.0625 -7.34375 C 2.0625 -7.34375 2.0625 -6.109375 2.0625 -6.109375 C 2.703125 -7.125 3.40625 -7.546875 4.5 -7.546875 C 5.90625 -7.546875 6.8125 -6.765625 6.8125 -5.546875 C 6.8125 -5.546875 6.8125 0 6.8125 0 Z M 6.8125 0 "/>
</g>
<g id="glyph-0-13-98f15205">
<path d="M 7.15625 -7.015625 C 7.15625 -5.796875 6.4375 -4.765625 5.046875 -4.015625 C 5.046875 -4.015625 3.65625 -3.265625 3.65625 -3.265625 C 2.4375 -2.546875 1.984375 -2.03125 1.859375 -1.21875 C 1.859375 -1.21875 7.078125 -1.21875 7.078125 -1.21875 C 7.078125 -1.21875 7.078125 0 7.078125 0 C 7.078125 0 0.46875 0 0.46875 0 C 0.59375 -2.1875 1.1875 -3.125 3.265625 -4.296875 C 3.265625 -4.296875 4.546875 -5.03125 4.546875 -5.03125 C 5.4375 -5.53125 5.890625 -6.203125 5.890625 -6.984375 C 5.890625 -8.046875 5.046875 -8.84375 3.9375 -8.84375 C 2.71875 -8.84375 2.03125 -8.140625 1.9375 -6.484375 C 1.9375 -6.484375 0.703125 -6.484375 0.703125 -6.484375 C 0.765625 -8.890625 1.953125 -9.921875 3.96875 -9.921875 C 5.859375 -9.921875 7.15625 -8.6875 7.15625 -7.015625 Z M 7.15625 -7.015625 "/>
</g>
<g id="glyph-0-14-98f15205">
<path d="M 7.1875 -3.296875 C 7.1875 -1.1875 5.78125 0.203125 3.78125 0.203125 C 2.015625 0.203125 0.890625 -0.578125 0.484375 -2.546875 C 0.484375 -2.546875 1.71875 -2.546875 1.71875 -2.546875 C 2.015625 -1.421875 2.671875 -0.875 3.75 -0.875 C 5.09375 -0.875 5.921875 -1.6875 5.921875 -3.125 C 5.921875 -4.59375 5.078125 -5.453125 3.75 -5.453125 C 2.984375 -5.453125 2.5 -5.203125 1.9375 -4.515625 C 1.9375 -4.515625 0.796875 -4.515625 0.796875 -4.515625 C 0.796875 -4.515625 1.546875 -9.71875 1.546875 -9.71875 C 1.546875 -9.71875 6.65625 -9.71875 6.65625 -9.71875 C 6.65625 -9.71875 6.65625 -8.5 6.65625 -8.5 C 6.65625 -8.5 2.53125 -8.5 2.53125 -8.5 C 2.53125 -8.5 2.140625 -5.9375 2.140625 -5.9375 C 2.71875 -6.359375 3.28125 -6.53125 3.96875 -6.53125 C 5.875 -6.53125 7.1875 -5.25 7.1875 -3.296875 Z M 7.1875 -3.296875 "/>
</g>
<g id="glyph-0-15-98f15205">
<path d="M 7.09375 -4.78125 C 7.09375 -1.515625 5.953125 0.203125 3.84375 0.203125 C 1.71875 0.203125 0.609375 -1.515625 0.609375 -4.859375 C 0.609375 -8.1875 1.703125 -9.921875 3.84375 -9.921875 C 6 -9.921875 7.09375 -8.21875 7.09375 -4.78125 Z M 5.84375 -4.890625 C 5.84375 -7.546875 5.1875 -8.828125 3.84375 -8.828125 C 2.515625 -8.828125 1.859375 -7.5625 1.859375 -4.84375 C 1.859375 -2.125 2.515625 -0.8125 3.828125 -0.8125 C 5.1875 -0.8125 5.84375 -2.078125 5.84375 -4.890625 Z M 5.84375 -4.890625 "/>
</g>
<g id="glyph-0-16-98f15205">
<path d="M 7.078125 -2.890625 C 7.078125 -1.015625 5.765625 0.203125 3.71875 0.203125 C 1.6875 0.203125 0.609375 -0.78125 0.453125 -3 C 0.453125 -3 1.6875 -3 1.6875 -3 C 1.765625 -1.546875 2.421875 -0.875 3.765625 -0.875 C 5.046875 -0.875 5.828125 -1.625 5.828125 -2.875 C 5.828125 -3.96875 5.125 -4.625 3.765625 -4.625 C 3.765625 -4.625 3.09375 -4.625 3.09375 -4.625 C 3.09375 -4.625 3.09375 -5.65625 3.09375 -5.65625 C 5.0625 -5.65625 5.53125 -6.09375 5.53125 -7.15625 C 5.53125 -8.203125 4.875 -8.84375 3.78125 -8.84375 C 2.515625 -8.84375 1.921875 -8.1875 1.890625 -6.71875 C 1.890625 -6.71875 0.65625 -6.71875 0.65625 -6.71875 C 0.703125 -8.828125 1.765625 -9.921875 3.765625 -9.921875 C 5.65625 -9.921875 6.796875 -8.90625 6.796875 -7.203125 C 6.796875 -6.203125 6.328125 -5.5625 5.40625 -5.1875 C 6.59375 -4.78125 7.078125 -4.09375 7.078125 -2.890625 Z M 7.078125 -2.890625 "/>
</g>
<g id="glyph-0-17-98f15205">
<path d="M 7.28125 -2.375 C 7.28125 -2.375 5.8125 -2.375 5.8125 -2.375 C 5.8125 -2.375 5.8125 0 5.8125 0 C 5.8125 0 4.578125 0 4.578125 0 C 4.578125 0 4.578125 -2.375 4.578125 -2.375 C 4.578125 -2.375 0.390625 -2.375 0.390625 -2.375 C 0.390625 -2.375 0.390625 -3.6875 0.390625 -3.6875 C 0.390625 -3.6875 4.90625 -9.921875 4.90625 -9.921875 C 4.90625 -9.921875 5.8125 -9.921875 5.8125 -9.921875 C 5.8125 -9.921875 5.8125 -3.484375 5.8125 -3.484375 C 5.8125 -3.484375 7.28125 -3.484375 7.28125 -3.484375 C 7.28125 -3.484375 7.28125 -2.375 7.28125 -2.375 Z M 4.578125 -3.484375 C 4.578125 -3.484375 4.578125 -7.828125 4.578125 -7.828125 C 4.578125 -7.828125 1.46875 -3.484375 1.46875 -3.484375 C 1.46875 -3.484375 4.578125 -3.484375 4.578125 -3.484375 Z M 4.578125 -3.484375 "/>
</g>
<g id="glyph-1-0-98f15205">
<path d="M 1.640625 -8.390625 C 3.9375 -6.09375 4.34375 -4.0625 2.859375 -2.578125 C 1.359375 -1.078125 -0.640625 -1.515625 -3 -3.875 C -5.359375 -6.234375 -5.8125 -8.21875 -4.296875 -9.734375 C -2.765625 -11.265625 -0.796875 -10.828125 1.640625 -8.390625 Z M 0.671875 -7.578125 C -1.21875 -9.46875 -2.578125 -9.921875 -3.53125 -8.96875 C -4.46875 -8.03125 -4.03125 -6.65625 -2.109375 -4.734375 C -0.1875 -2.8125 1.203125 -2.359375 2.125 -3.28125 C 3.09375 -4.25 2.65625 -5.59375 0.671875 -7.578125 Z M 0.671875 -7.578125 "/>
</g>
<g id="glyph-1-1-98f15205">
<path d="M 1.890625 -1.890625 C 1.890625 -1.890625 0.859375 -0.859375 0.859375 -0.859375 C 0.859375 -0.859375 -0.171875 -1.890625 -0.171875 -1.890625 C -0.171875 -1.890625 0.859375 -2.921875 0.859375 -2.921875 C 0.859375 -2.921875 1.890625 -1.890625 1.890625 -1.890625 Z M 1.890625 -1.890625 "/>
</g>
<g id="glyph-1-2-98f15205">
<path d="M 3.4375 -3.4375 C 3.4375 -3.4375 2.5625 -2.5625 2.5625 -2.5625 C 2.5625 -2.5625 -2.4375 -7.5625 -2.4375 -7.5625 C -2.4375 -7.5625 -4 -6 -4 -6 C -4 -6 -4.625 -6.625 -4.625 -6.625 C -3.4375 -8.15625 -3.390625 -8.484375 -4.15625 -9.875 C -4.15625 -9.875 -3.578125 -10.453125 -3.578125 -10.453125 C -3.578125 -10.453125 3.4375 -3.4375 3.4375 -3.4375 Z M 3.4375 -3.4375 "/>
</g>
<g id="glyph-2-0-98f15205">
<path d="M 1.359375 -8.703125 C 3.78125 -6.28125 4.296875 -4.015625 2.65625 -2.375 C 1.59375 -1.3125 0.171875 -1.234375 -1.15625 -2.1875 C -1.15625 -2.1875 -0.28125 -3.0625 -0.28125 -3.0625 C 0.53125 -2.53125 1.328125 -2.578125 1.953125 -3.203125 C 2.9375 -4.1875 2.5625 -5.6875 0.859375 -7.421875 C 0.9375 -6.40625 0.671875 -5.703125 0.015625 -5.046875 C -1.25 -3.78125 -3 -3.75 -4.328125 -5.078125 C -5.6875 -6.4375 -5.671875 -8.359375 -4.34375 -9.6875 C -2.734375 -11.296875 -0.828125 -10.890625 1.359375 -8.703125 Z M -0.609375 -8.796875 C -1.53125 -9.71875 -2.78125 -9.71875 -3.59375 -8.90625 C -4.390625 -8.109375 -4.390625 -6.921875 -3.5 -6.03125 C -2.5625 -5.09375 -1.484375 -5.078125 -0.65625 -5.90625 C 0.203125 -6.765625 0.234375 -7.953125 -0.609375 -8.796875 Z M -0.609375 -8.796875 "/>
</g>
<g id="glyph-2-1-98f15205">
<path d="M 1.890625 -1.890625 C 1.890625 -1.890625 0.859375 -0.859375 0.859375 -0.859375 C 0.859375 -0.859375 -0.171875 -1.890625 -0.171875 -1.890625 C -0.171875 -1.890625 0.859375 -2.921875 0.859375 -2.921875 C 0.859375 -2.921875 1.890625 -1.890625 1.890625 -1.890625 Z M 1.890625 -1.890625 "/>
</g>
<g id="glyph-3-0-98f15205">
<path d="M 1.890625 -1.890625 C 1.890625 -1.890625 0.859375 -0.859375 0.859375 -0.859375 C 0.859375 -0.859375 -0.171875 -1.890625 -0.171875 -1.890625 C -0.171875 -1.890625 0.859375 -2.921875 0.859375 -2.921875 C 0.859375 -2.921875 1.890625 -1.890625 1.890625 -1.890625 Z M 1.890625 -1.890625 "/>
</g>
<g id="glyph-4-0-98f15205">
<path d="M 1.640625 -8.390625 C 3.9375 -6.09375 4.34375 -4.0625 2.859375 -2.578125 C 1.359375 -1.078125 -0.640625 -1.515625 -3 -3.875 C -5.359375 -6.234375 -5.8125 -8.21875 -4.296875 -9.734375 C -2.765625 -11.265625 -0.796875 -10.828125 1.640625 -8.390625 Z M 0.671875 -7.578125 C -1.21875 -9.46875 -2.578125 -9.921875 -3.53125 -8.96875 C -4.46875 -8.03125 -4.03125 -6.65625 -2.109375 -4.734375 C -0.1875 -2.8125 1.203125 -2.359375 2.125 -3.28125 C 3.09375 -4.25 2.65625 -5.59375 0.671875 -7.578125 Z M 0.671875 -7.578125 "/>
</g>
<g id="glyph-5-0-98f15205">
<path d="M 1.640625 -8.390625 C 3.9375 -6.09375 4.34375 -4.0625 2.859375 -2.578125 C 1.359375 -1.078125 -0.640625 -1.515625 -3 -3.875 C -5.359375 -6.234375 -5.8125 -8.21875 -4.296875 -9.734375 C -2.765625 -11.265625 -0.796875 -10.828125 1.640625 -8.390625 Z M 0.671875 -7.578125 C -1.21875 -9.46875 -2.578125 -9.921875 -3.53125 -8.96875 C -4.46875 -8.03125 -4.03125 -6.65625 -2.109375 -4.734375 C -0.1875 -2.8125 1.203125 -2.359375 2.125 -3.28125 C 3.09375 -4.25 2.65625 -5.59375 0.671875 -7.578125 Z M 0.671875 -7.578125 "/>
</g>
<g id="glyph-6-0-98f15205">
<path d="M 3.4375 -3.4375 C 3.4375 -3.4375 2.5625 -2.5625 2.5625 -2.5625 C 2.5625 -2.5625 -2.4375 -7.5625 -2.4375 -7.5625 C -2.4375 -7.5625 -4 -6 -4 -6 C -4 -6 -4.625 -6.625 -4.625 -6.625 C -3.4375 -8.15625 -3.390625 -8.484375 -4.15625 -9.875 C -4.15625 -9.875 -3.578125 -10.453125 -3.578125 -10.453125 C -3.578125 -10.453125 3.4375 -3.4375 3.4375 -3.4375 Z M 3.4375 -3.4375 "/>
</g>
<g id="glyph-6-1-98f15205">
<path d="M 1.359375 -8.703125 C 3.78125 -6.28125 4.296875 -4.015625 2.65625 -2.375 C 1.59375 -1.3125 0.171875 -1.234375 -1.15625 -2.1875 C -1.15625 -2.1875 -0.28125 -3.0625 -0.28125 -3.0625 C 0.53125 -2.53125 1.328125 -2.578125 1.953125 -3.203125 C 2.9375 -4.1875 2.5625 -5.6875 0.859375 -7.421875 C 0.9375 -6.40625 0.671875 -5.703125 0.015625 -5.046875 C -1.25 -3.78125 -3 -3.75 -4.328125 -5.078125 C -5.6875 -6.4375 -5.671875 -8.359375 -4.34375 -9.6875 C -2.734375 -11.296875 -0.828125 -10.890625 1.359375 -8.703125 Z M -0.609375 -8.796875 C -1.53125 -9.71875 -2.78125 -9.71875 -3.59375 -8.90625 C -4.390625 -8.109375 -4.390625 -6.921875 -3.5 -6.03125 C -2.5625 -5.09375 -1.484375 -5.078125 -0.65625 -5.90625 C 0.203125 -6.765625 0.234375 -7.953125 -0.609375 -8.796875 Z M -0.609375 -8.796875 "/>
</g>
<g id="glyph-6-2-98f15205">
<path d="M 1.640625 -8.390625 C 3.9375 -6.09375 4.34375 -4.0625 2.859375 -2.578125 C 1.359375 -1.078125 -0.640625 -1.515625 -3 -3.875 C -5.359375 -6.234375 -5.8125 -8.21875 -4.296875 -9.734375 C -2.765625 -11.265625 -0.796875 -10.828125 1.640625 -8.390625 Z M 0.671875 -7.578125 C -1.21875 -9.46875 -2.578125 -9.921875 -3.53125 -8.96875 C -4.46875 -8.03125 -4.03125 -6.65625 -2.109375 -4.734375 C -0.1875 -2.8125 1.203125 -2.359375 2.125 -3.28125 C 3.09375 -4.25 2.65625 -5.59375 0.671875 -7.578125 Z M 0.671875 -7.578125 "/>
</g>
<g id="glyph-6-3-98f15205">
<path d="M 1.890625 -1.890625 C 1.890625 -1.890625 0.859375 -0.859375 0.859375 -0.859375 C 0.859375 -0.859375 -0.171875 -1.890625 -0.171875 -1.890625 C -0.171875 -1.890625 0.859375 -2.921875 0.859375 -2.921875 C 0.859375 -2.921875 1.890625 -1.890625 1.890625 -1.890625 Z M 1.890625 -1.890625 "/>
</g>
<g id="glyph-7-0-98f15205">
<path d="M 1.890625 -1.890625 C 1.890625 -1.890625 0.859375 -0.859375 0.859375 -0.859375 C 0.859375 -0.859375 -0.171875 -1.890625 -0.171875 -1.890625 C -0.171875 -1.890625 0.859375 -2.921875 0.859375 -2.921875 C 0.859375 -2.921875 1.890625 -1.890625 1.890625 -1.890625 Z M 1.890625 -1.890625 "/>
</g>
<g id="glyph-7-1-98f15205">
<path d="M 3.4375 -3.4375 C 3.4375 -3.4375 2.5625 -2.5625 2.5625 -2.5625 C 2.5625 -2.5625 -2.4375 -7.5625 -2.4375 -7.5625 C -2.4375 -7.5625 -4 -6 -4 -6 C -4 -6 -4.625 -6.625 -4.625 -6.625 C -3.4375 -8.15625 -3.390625 -8.484375 -4.15625 -9.875 C -4.15625 -9.875 -3.578125 -10.453125 -3.578125 -10.453125 C -3.578125 -10.453125 3.4375 -3.4375 3.4375 -3.4375 Z M 3.4375 -3.4375 "/>
</g>
<g id="glyph-7-2-98f15205">
<path d="M 0.109375 -10.015625 C 0.96875 -9.15625 1.171875 -7.921875 0.71875 -6.40625 C 0.71875 -6.40625 0.265625 -4.890625 0.265625 -4.890625 C -0.078125 -3.515625 -0.03125 -2.84375 0.453125 -2.171875 C 0.453125 -2.171875 4.140625 -5.859375 4.140625 -5.859375 C 4.140625 -5.859375 5 -5 5 -5 C 5 -5 0.328125 -0.328125 0.328125 -0.328125 C -1.125 -1.96875 -1.359375 -3.046875 -0.71875 -5.34375 C -0.71875 -5.34375 -0.34375 -6.78125 -0.34375 -6.78125 C -0.0625 -7.75 -0.21875 -8.5625 -0.765625 -9.109375 C -1.515625 -9.859375 -2.6875 -9.8125 -3.46875 -9.03125 C -4.328125 -8.171875 -4.3125 -7.1875 -3.203125 -5.953125 C -3.203125 -5.953125 -4.078125 -5.078125 -4.078125 -5.078125 C -5.734375 -6.828125 -5.640625 -8.390625 -4.203125 -9.828125 C -2.875 -11.15625 -1.078125 -11.203125 0.109375 -10.015625 Z M 0.109375 -10.015625 "/>
</g>
<g id="glyph-8-0-98f15205">
<path d="M 1.359375 -8.703125 C 3.78125 -6.28125 4.296875 -4.015625 2.65625 -2.375 C 1.59375 -1.3125 0.171875 -1.234375 -1.15625 -2.1875 C -1.15625 -2.1875 -0.28125 -3.0625 -0.28125 -3.0625 C 0.53125 -2.53125 1.328125 -2.578125 1.953125 -3.203125 C 2.9375 -4.1875 2.5625 -5.6875 0.859375 -7.421875 C 0.9375 -6.40625 0.671875 -5.703125 0.015625 -5.046875 C -1.25 -3.78125 -3 -3.75 -4.328125 -5.078125 C -5.6875 -6.4375 -5.671875 -8.359375 -4.34375 -9.6875 C -2.734375 -11.296875 -0.828125 -10.890625 1.359375 -8.703125 Z M -0.609375 -8.796875 C -1.53125 -9.71875 -2.78125 -9.71875 -3.59375 -8.90625 C -4.390625 -8.109375 -4.390625 -6.921875 -3.5 -6.03125 C -2.5625 -5.09375 -1.484375 -5.078125 -0.65625 -5.90625 C 0.203125 -6.765625 0.234375 -7.953125 -0.609375 -8.796875 Z M -0.609375 -8.796875 "/>
</g>
<g id="glyph-8-1-98f15205">
<path d="M 1.640625 -8.390625 C 3.9375 -6.09375 4.34375 -4.0625 2.859375 -2.578125 C 1.359375 -1.078125 -0.640625 -1.515625 -3 -3.875 C -5.359375 -6.234375 -5.8125 -8.21875 -4.296875 -9.734375 C -2.765625 -11.265625 -0.796875 -10.828125 1.640625 -8.390625 Z M 0.671875 -7.578125 C -1.21875 -9.46875 -2.578125 -9.921875 -3.53125 -8.96875 C -4.46875 -8.03125 -4.03125 -6.65625 -2.109375 -4.734375 C -0.1875 -2.8125 1.203125 -2.359375 2.125 -3.28125 C 3.09375 -4.25 2.65625 -5.59375 0.671875 -7.578125 Z M 0.671875 -7.578125 "/>
</g>
<g id="glyph-8-2-98f15205">
<path d="M 1.890625 -1.890625 C 1.890625 -1.890625 0.859375 -0.859375 0.859375 -0.859375 C 0.859375 -0.859375 -0.171875 -1.890625 -0.171875 -1.890625 C -0.171875 -1.890625 0.859375 -2.921875 0.859375 -2.921875 C 0.859375 -2.921875 1.890625 -1.890625 1.890625 -1.890625 Z M 1.890625 -1.890625 "/>
</g>
<g id="glyph-8-3-98f15205">
<path d="M 3.4375 -3.4375 C 3.4375 -3.4375 2.5625 -2.5625 2.5625 -2.5625 C 2.5625 -2.5625 -2.4375 -7.5625 -2.4375 -7.5625 C -2.4375 -7.5625 -4 -6 -4 -6 C -4 -6 -4.625 -6.625 -4.625 -6.625 C -3.4375 -8.15625 -3.390625 -8.484375 -4.15625 -9.875 C -4.15625 -9.875 -3.578125 -10.453125 -3.578125 -10.453125 C -3.578125 -10.453125 3.4375 -3.4375 3.4375 -3.4375 Z M 3.4375 -3.4375 "/>
</g>
<g id="glyph-9-0-98f15205">
<path d="M 1.359375 -8.703125 C 3.78125 -6.28125 4.296875 -4.015625 2.65625 -2.375 C 1.59375 -1.3125 0.171875 -1.234375 -1.15625 -2.1875 C -1.15625 -2.1875 -0.28125 -3.0625 -0.28125 -3.0625 C 0.53125 -2.53125 1.328125 -2.578125 1.953125 -3.203125 C 2.9375 -4.1875 2.5625 -5.6875 0.859375 -7.421875 C 0.9375 -6.40625 0.671875 -5.703125 0.015625 -5.046875 C -1.25 -3.78125 -3 -3.75 -4.328125 -5.078125 C -5.6875 -6.4375 -5.671875 -8.359375 -4.34375 -9.6875 C -2.734375 -11.296875 -0.828125 -10.890625 1.359375 -8.703125 Z M -0.609375 -8.796875 C -1.53125 -9.71875 -2.78125 -9.71875 -3.59375 -8.90625 C -4.390625 -8.109375 -4.390625 -6.921875 -3.5 -6.03125 C -2.5625 -5.09375 -1.484375 -5.078125 -0.65625 -5.90625 C 0.203125 -6.765625 0.234375 -7.953125 -0.609375 -8.796875 Z M -0.609375 -8.796875 "/>
</g>
<g id="glyph-9-1-98f15205">
<path d="M 1.640625 -8.390625 C 3.9375 -6.09375 4.34375 -4.0625 2.859375 -2.578125 C 1.359375 -1.078125 -0.640625 -1.515625 -3 -3.875 C -5.359375 -6.234375 -5.8125 -8.21875 -4.296875 -9.734375 C -2.765625 -11.265625 -0.796875 -10.828125 1.640625 -8.390625 Z M 0.671875 -7.578125 C -1.21875 -9.46875 -2.578125 -9.921875 -3.53125 -8.96875 C -4.46875 -8.03125 -4.03125 -6.65625 -2.109375 -4.734375 C -0.1875 -2.8125 1.203125 -2.359375 2.125 -3.28125 C 3.09375 -4.25 2.65625 -5.59375 0.671875 -7.578125 Z M 0.671875 -7.578125 "/>
</g>
<g id="glyph-9-2-98f15205">
<path d="M 1.890625 -1.890625 C 1.890625 -1.890625 0.859375 -0.859375 0.859375 -0.859375 C 0.859375 -0.859375 -0.171875 -1.890625 -0.171875 -1.890625 C -0.171875 -1.890625 0.859375 -2.921875 0.859375 -2.921875 C 0.859375 -2.921875 1.890625 -1.890625 1.890625 -1.890625 Z M 1.890625 -1.890625 "/>
</g>
<g id="glyph-9-3-98f15205">
<path d="M 3.4375 -3.4375 C 3.4375 -3.4375 2.5625 -2.5625 2.5625 -2.5625 C 2.5625 -2.5625 -2.4375 -7.5625 -2.4375 -7.5625 C -2.4375 -7.5625 -4 -6 -4 -6 C -4 -6 -4.625 -6.625 -4.625 -6.625 C -3.4375 -8.15625 -3.390625 -8.484375 -4.15625 -9.875 C -4.15625 -9.875 -3.578125 -10.453125 -3.578125 -10.453125 C -3.578125 -10.453125 3.4375 -3.4375 3.4375 -3.4375 Z M 3.4375 -3.4375 "/>
</g>
<g id="glyph-10-0-98f15205">
<path d="M 1.890625 -1.890625 C 1.890625 -1.890625 0.859375 -0.859375 0.859375 -0.859375 C 0.859375 -0.859375 -0.171875 -1.890625 -0.171875 -1.890625 C -0.171875 -1.890625 0.859375 -2.921875 0.859375 -2.921875 C 0.859375 -2.921875 1.890625 -1.890625 1.890625 -1.890625 Z M 1.890625 -1.890625 "/>
</g>
<g id="glyph-10-1-98f15205">
<path d="M 3.484375 -6.828125 C 3.484375 -6.828125 2.4375 -5.78125 2.4375 -5.78125 C 2.4375 -5.78125 4.109375 -4.109375 4.109375 -4.109375 C 4.109375 -4.109375 3.234375 -3.234375 3.234375 -3.234375 C 3.234375 -3.234375 1.5625 -4.90625 1.5625 -4.90625 C 1.5625 -4.90625 -1.390625 -1.953125 -1.390625 -1.953125 C -1.390625 -1.953125 -2.328125 -2.890625 -2.328125 -2.890625 C -2.328125 -2.890625 -3.546875 -10.484375 -3.546875 -10.484375 C -3.546875 -10.484375 -2.90625 -11.125 -2.90625 -11.125 C -2.90625 -11.125 1.640625 -6.578125 1.640625 -6.578125 C 1.640625 -6.578125 2.6875 -7.625 2.6875 -7.625 C 2.6875 -7.625 3.484375 -6.828125 3.484375 -6.828125 Z M 0.765625 -5.703125 C 0.765625 -5.703125 -2.296875 -8.765625 -2.296875 -8.765625 C -2.296875 -8.765625 -1.4375 -3.5 -1.4375 -3.5 C -1.4375 -3.5 0.765625 -5.703125 0.765625 -5.703125 Z M 0.765625 -5.703125 "/>
</g>
<g id="glyph-11-0-98f15205">
<path d="M 2.953125 -7.046875 C 4.28125 -5.71875 4.21875 -3.9375 2.765625 -2.484375 C 1.328125 -1.046875 -0.109375 -0.984375 -1.796875 -2.453125 C -1.796875 -2.453125 -0.9375 -3.3125 -0.9375 -3.3125 C 0.15625 -2.34375 1.09375 -2.34375 2.03125 -3.28125 C 2.9375 -4.1875 2.96875 -5.28125 2.09375 -6.15625 C 1.3125 -6.9375 0.359375 -6.890625 -0.609375 -5.921875 C -0.609375 -5.921875 -1.078125 -5.453125 -1.078125 -5.453125 C -1.078125 -5.453125 -1.8125 -6.1875 -1.8125 -6.1875 C -0.421875 -7.578125 -0.40625 -8.21875 -1.15625 -8.96875 C -1.890625 -9.703125 -2.796875 -9.703125 -3.578125 -8.921875 C -4.46875 -8.03125 -4.4375 -7.15625 -3.40625 -6.09375 C -3.40625 -6.09375 -4.28125 -5.21875 -4.28125 -5.21875 C -5.75 -6.75 -5.765625 -8.265625 -4.359375 -9.671875 C -3.015625 -11.015625 -1.484375 -11.109375 -0.28125 -9.90625 C 0.421875 -9.203125 0.53125 -8.40625 0.15625 -7.5 C 1.28125 -8.03125 2.109375 -7.890625 2.953125 -7.046875 Z M 2.953125 -7.046875 "/>
</g>
<g id="glyph-11-1-98f15205">
<path d="M 1.890625 -1.890625 C 1.890625 -1.890625 0.859375 -0.859375 0.859375 -0.859375 C 0.859375 -0.859375 -0.171875 -1.890625 -0.171875 -1.890625 C -0.171875 -1.890625 0.859375 -2.921875 0.859375 -2.921875 C 0.859375 -2.921875 1.890625 -1.890625 1.890625 -1.890625 Z M 1.890625 -1.890625 "/>
</g>
<g id="glyph-11-2-98f15205">
<path d="M 2.90625 -7.25 C 4.265625 -5.890625 4.265625 -3.984375 2.921875 -2.640625 C 1.328125 -1.046875 -0.5625 -1.4375 -2.75 -3.625 C -5.203125 -6.078125 -5.71875 -8.3125 -4.078125 -9.953125 C -3 -11.03125 -1.5625 -11.09375 -0.265625 -10.109375 C -0.265625 -10.109375 -1.125 -9.25 -1.125 -9.25 C -1.9375 -9.78125 -2.765625 -9.734375 -3.359375 -9.140625 C -4.375 -8.125 -3.96875 -6.625 -2.265625 -4.890625 C -2.40625 -5.78125 -2.125 -6.59375 -1.4375 -7.28125 C -0.171875 -8.546875 1.59375 -8.5625 2.90625 -7.25 Z M 2.078125 -6.296875 C 1.140625 -7.234375 0.078125 -7.265625 -0.78125 -6.40625 C -1.640625 -5.546875 -1.65625 -4.40625 -0.78125 -3.53125 C 0.109375 -2.640625 1.359375 -2.609375 2.171875 -3.421875 C 2.96875 -4.21875 2.96875 -5.40625 2.078125 -6.296875 Z M 2.078125 -6.296875 "/>
</g>
<g id="glyph-12-0-98f15205">
<path d="M 1.359375 -8.703125 C 3.78125 -6.28125 4.296875 -4.015625 2.65625 -2.375 C 1.59375 -1.3125 0.171875 -1.234375 -1.15625 -2.1875 C -1.15625 -2.1875 -0.28125 -3.0625 -0.28125 -3.0625 C 0.53125 -2.53125 1.328125 -2.578125 1.953125 -3.203125 C 2.9375 -4.1875 2.5625 -5.6875 0.859375 -7.421875 C 0.9375 -6.40625 0.671875 -5.703125 0.015625 -5.046875 C -1.25 -3.78125 -3 -3.75 -4.328125 -5.078125 C -5.6875 -6.4375 -5.671875 -8.359375 -4.34375 -9.6875 C -2.734375 -11.296875 -0.828125 -10.890625 1.359375 -8.703125 Z M -0.609375 -8.796875 C -1.53125 -9.71875 -2.78125 -9.71875 -3.59375 -8.90625 C -4.390625 -8.109375 -4.390625 -6.921875 -3.5 -6.03125 C -2.5625 -5.09375 -1.484375 -5.078125 -0.65625 -5.90625 C 0.203125 -6.765625 0.234375 -7.953125 -0.609375 -8.796875 Z M -0.609375 -8.796875 "/>
</g>
<g id="glyph-12-1-98f15205">
<path d="M 3.4375 -3.4375 C 3.4375 -3.4375 2.5625 -2.5625 2.5625 -2.5625 C 2.5625 -2.5625 -2.4375 -7.5625 -2.4375 -7.5625 C -2.4375 -7.5625 -4 -6 -4 -6 C -4 -6 -4.625 -6.625 -4.625 -6.625 C -3.4375 -8.15625 -3.390625 -8.484375 -4.15625 -9.875 C -4.15625 -9.875 -3.578125 -10.453125 -3.578125 -10.453125 C -3.578125 -10.453125 3.4375 -3.4375 3.4375 -3.4375 Z M 3.4375 -3.4375 "/>
</g>
<g id="glyph-13-0-98f15205">
<path d="M 1.890625 -1.890625 C 1.890625 -1.890625 0.859375 -0.859375 0.859375 -0.859375 C 0.859375 -0.859375 -0.171875 -1.890625 -0.171875 -1.890625 C -0.171875 -1.890625 0.859375 -2.921875 0.859375 -2.921875 C 0.859375 -2.921875 1.890625 -1.890625 1.890625 -1.890625 Z M 1.890625 -1.890625 "/>
</g>
<g id="glyph-13-1-98f15205">
<path d="M 2.75 -7.40625 C 4.234375 -5.921875 4.234375 -3.953125 2.8125 -2.53125 C 1.5625 -1.28125 0.21875 -1.03125 -1.453125 -2.140625 C -1.453125 -2.140625 -0.578125 -3.015625 -0.578125 -3.015625 C 0.421875 -2.421875 1.265625 -2.515625 2.03125 -3.28125 C 2.984375 -4.234375 3 -5.375 1.984375 -6.390625 C 0.9375 -7.4375 -0.265625 -7.453125 -1.203125 -6.515625 C -1.75 -5.96875 -1.90625 -5.4375 -1.8125 -4.5625 C -1.8125 -4.5625 -2.625 -3.75 -2.625 -3.75 C -2.625 -3.75 -5.78125 -7.96875 -5.78125 -7.96875 C -5.78125 -7.96875 -2.171875 -11.578125 -2.171875 -11.578125 C -2.171875 -11.578125 -1.3125 -10.71875 -1.3125 -10.71875 C -1.3125 -10.71875 -4.21875 -7.8125 -4.21875 -7.8125 C -4.21875 -7.8125 -2.6875 -5.71875 -2.6875 -5.71875 C -2.578125 -6.421875 -2.3125 -6.9375 -1.8125 -7.4375 C -0.46875 -8.78125 1.359375 -8.796875 2.75 -7.40625 Z M 2.75 -7.40625 "/>
</g>
<g id="glyph-14-0-98f15205">
<path d="M 1.640625 -8.390625 C 3.9375 -6.09375 4.34375 -4.0625 2.859375 -2.578125 C 1.359375 -1.078125 -0.640625 -1.515625 -3 -3.875 C -5.359375 -6.234375 -5.8125 -8.21875 -4.296875 -9.734375 C -2.765625 -11.265625 -0.796875 -10.828125 1.640625 -8.390625 Z M 0.671875 -7.578125 C -1.21875 -9.46875 -2.578125 -9.921875 -3.53125 -8.96875 C -4.46875 -8.03125 -4.03125 -6.65625 -2.109375 -4.734375 C -0.1875 -2.8125 1.203125 -2.359375 2.125 -3.28125 C 3.09375 -4.25 2.65625 -5.59375 0.671875 -7.578125 Z M 0.671875 -7.578125 "/>
</g>
<g id="glyph-14-1-98f15205">
<path d="M 1.359375 -8.703125 C 3.78125 -6.28125 4.296875 -4.015625 2.65625 -2.375 C 1.59375 -1.3125 0.171875 -1.234375 -1.15625 -2.1875 C -1.15625 -2.1875 -0.28125 -3.0625 -0.28125 -3.0625 C 0.53125 -2.53125 1.328125 -2.578125 1.953125 -3.203125 C 2.9375 -4.1875 2.5625 -5.6875 0.859375 -7.421875 C 0.9375 -6.40625 0.671875 -5.703125 0.015625 -5.046875 C -1.25 -3.78125 -3 -3.75 -4.328125 -5.078125 C -5.6875 -6.4375 -5.671875 -8.359375 -4.34375 -9.6875 C -2.734375 -11.296875 -0.828125 -10.890625 1.359375 -8.703125 Z M -0.609375 -8.796875 C -1.53125 -9.71875 -2.78125 -9.71875 -3.59375 -8.90625 C -4.390625 -8.109375 -4.390625 -6.921875 -3.5 -6.03125 C -2.5625 -5.09375 -1.484375 -5.078125 -0.65625 -5.90625 C 0.203125 -6.765625 0.234375 -7.953125 -0.609375 -8.796875 Z M -0.609375 -8.796875 "/>
</g>
<g id="glyph-15-0-98f15205">
<path d="M 1.890625 -1.890625 C 1.890625 -1.890625 0.859375 -0.859375 0.859375 -0.859375 C 0.859375 -0.859375 -0.171875 -1.890625 -0.171875 -1.890625 C -0.171875 -1.890625 0.859375 -2.921875 0.859375 -2.921875 C 0.859375 -2.921875 1.890625 -1.890625 1.890625 -1.890625 Z M 1.890625 -1.890625 "/>
</g>
<g id="glyph-15-1-98f15205">
<path d="M 3.4375 -3.4375 C 3.4375 -3.4375 2.5625 -2.5625 2.5625 -2.5625 C 2.5625 -2.5625 -2.4375 -7.5625 -2.4375 -7.5625 C -2.4375 -7.5625 -4 -6 -4 -6 C -4 -6 -4.625 -6.625 -4.625 -6.625 C -3.4375 -8.15625 -3.390625 -8.484375 -4.15625 -9.875 C -4.15625 -9.875 -3.578125 -10.453125 -3.578125 -10.453125 C -3.578125 -10.453125 3.4375 -3.4375 3.4375 -3.4375 Z M 3.4375 -3.4375 "/>
</g>
<g id="glyph-16-0-98f15205">
<path d="M 1.890625 -1.890625 C 1.890625 -1.890625 0.859375 -0.859375 0.859375 -0.859375 C 0.859375 -0.859375 -0.171875 -1.890625 -0.171875 -1.890625 C -0.171875 -1.890625 0.859375 -2.921875 0.859375 -2.921875 C 0.859375 -2.921875 1.890625 -1.890625 1.890625 -1.890625 Z M 1.890625 -1.890625 "/>
</g>
<g id="glyph-17-0-98f15205">
<path d="M 1.53125 -2.140625 C 2.515625 -2.140625 3.046875 -1.453125 3.046875 -0.140625 C 3.046875 0.046875 3.03125 0.109375 3.015625 0.25 C 3.015625 0.25 2.015625 0.25 2.015625 0.25 C 2.015625 0.25 2.03125 -0.03125 2.03125 -0.03125 C 2.078125 -0.734375 1.765625 -0.984375 1.0625 -0.984375 C 1.0625 -0.984375 -7.34375 -0.984375 -7.34375 -0.984375 C -7.34375 -0.984375 -7.34375 -2.140625 -7.34375 -2.140625 C -7.34375 -2.140625 1.53125 -2.140625 1.53125 -2.140625 Z M -8.4375 -2.296875 C -8.4375 -2.296875 -8.4375 -0.84375 -8.4375 -0.84375 C -8.4375 -0.84375 -9.890625 -0.84375 -9.890625 -0.84375 C -9.890625 -0.84375 -9.890625 -2.296875 -9.890625 -2.296875 C -9.890625 -2.296875 -8.4375 -2.296875 -8.4375 -2.296875 Z M -8.4375 -2.296875 "/>
</g>
<g id="glyph-17-1-98f15205">
<path d="M 0 -2.140625 C 0 -2.140625 0 -0.984375 0 -0.984375 C 0 -0.984375 -7.34375 -0.984375 -7.34375 -0.984375 C -7.34375 -0.984375 -7.34375 -2.140625 -7.34375 -2.140625 C -7.34375 -2.140625 0 -2.140625 0 -2.140625 Z M -8.4375 -2.296875 C -8.4375 -2.296875 -8.4375 -0.84375 -8.4375 -0.84375 C -8.4375 -0.84375 -9.890625 -0.84375 -9.890625 -0.84375 C -9.890625 -0.84375 -9.890625 -2.296875 -9.890625 -2.296875 C -9.890625 -2.296875 -8.4375 -2.296875 -8.4375 -2.296875 Z M -8.4375 -2.296875 "/>
</g>
<g id="glyph-18-0-98f15205">
<path d="M 0 -6.75 C 0 -6.75 0 -5.703125 0 -5.703125 C 0 -5.703125 -1.140625 -5.703125 -1.140625 -5.703125 C -0.171875 -5.015625 0.203125 -4.328125 0.203125 -3.25 C 0.203125 -1.8125 -0.578125 -0.90625 -1.796875 -0.90625 C -1.796875 -0.90625 -7.34375 -0.90625 -7.34375 -0.90625 C -7.34375 -0.90625 -7.34375 -2.078125 -7.34375 -2.078125 C -7.34375 -2.078125 -2.25 -2.078125 -2.25 -2.078125 C -1.375 -2.078125 -0.8125 -2.65625 -0.8125 -3.578125 C -0.8125 -4.796875 -1.796875 -5.59375 -3.296875 -5.59375 C -3.296875 -5.59375 -7.34375 -5.59375 -7.34375 -5.59375 C -7.34375 -5.59375 -7.34375 -6.75 -7.34375 -6.75 C -7.34375 -6.75 0 -6.75 0 -6.75 Z M 0 -6.75 "/>
</g>
<g id="glyph-19-0-98f15205">
<path d="M 0 -2.109375 C 0 -2.109375 0 -0.953125 0 -0.953125 C 0 -0.953125 -10.203125 -0.953125 -10.203125 -0.953125 C -10.203125 -0.953125 -10.203125 -2.109375 -10.203125 -2.109375 C -10.203125 -2.109375 0 -2.109375 0 -2.109375 Z M 0 -2.109375 "/>
</g>
<g id="glyph-20-0-98f15205">
<path d="M -0.03125 -7.484375 C 0.0625 -7.109375 0.09375 -6.9375 0.09375 -6.6875 C 0.09375 -6.125 -0.3125 -5.609375 -0.875 -5.484375 C -0.1875 -4.84375 0.203125 -3.9375 0.203125 -3 C 0.203125 -1.515625 -0.578125 -0.59375 -1.90625 -0.59375 C -2.796875 -0.59375 -3.453125 -1.015625 -3.8125 -1.875 C -3.984375 -2.328125 -4.046875 -2.578125 -4.25 -4.234375 C -4.375 -5.15625 -4.578125 -5.453125 -5.0625 -5.453125 C -5.0625 -5.453125 -5.375 -5.453125 -5.375 -5.453125 C -6.078125 -5.453125 -6.46875 -4.859375 -6.46875 -3.8125 C -6.46875 -2.71875 -6.0625 -2.1875 -5.171875 -2.09375 C -5.171875 -2.09375 -5.171875 -0.90625 -5.171875 -0.90625 C -6.859375 -0.984375 -7.546875 -2.078125 -7.546875 -3.84375 C -7.546875 -5.65625 -6.84375 -6.609375 -5.546875 -6.609375 C -5.546875 -6.609375 -1.453125 -6.609375 -1.453125 -6.609375 C -1.09375 -6.609375 -0.875 -6.828125 -0.875 -7.234375 C -0.875 -7.3125 -0.875 -7.359375 -0.90625 -7.484375 C -0.90625 -7.484375 -0.03125 -7.484375 -0.03125 -7.484375 Z M -2.53125 -5.453125 C -2.53125 -5.453125 -3.625 -5.453125 -3.625 -5.453125 C -3.4375 -5.046875 -3.390625 -4.796875 -3.21875 -3.5625 C -3.03125 -2.328125 -2.703125 -1.8125 -1.9375 -1.8125 C -1.140625 -1.8125 -0.8125 -2.34375 -0.8125 -3.25 C -0.8125 -4.375 -1.484375 -5.453125 -2.53125 -5.453125 Z M -2.53125 -5.453125 "/>
</g>
<g id="glyph-21-0-98f15205">
<path d="M 0 -2.671875 C 0 -2.671875 0 -1.21875 0 -1.21875 C 0 -1.21875 -1.453125 -1.21875 -1.453125 -1.21875 C -1.453125 -1.21875 -1.453125 -2.671875 -1.453125 -2.671875 C -1.453125 -2.671875 0 -2.671875 0 -2.671875 Z M 0 -2.671875 "/>
</g>
<g id="glyph-22-0-98f15205">
<path d="M -7.34375 -9.90625 C -7.34375 -9.90625 0 -7.75 0 -7.75 C 0 -7.75 0 -6.421875 0 -6.421875 C 0 -6.421875 -5.75 -4.9375 -5.75 -4.9375 C -5.75 -4.9375 0 -3.53125 0 -3.53125 C 0 -3.53125 0 -2.21875 0 -2.21875 C 0 -2.21875 -7.34375 -0.078125 -7.34375 -0.078125 C -7.34375 -0.078125 -7.34375 -1.375 -7.34375 -1.375 C -7.34375 -1.375 -1.625 -2.875 -1.625 -2.875 C -1.625 -2.875 -7.34375 -4.265625 -7.34375 -4.265625 C -7.34375 -4.265625 -7.34375 -5.703125 -7.34375 -5.703125 C -7.34375 -5.703125 -1.625 -7.140625 -1.625 -7.140625 C -1.625 -7.140625 -7.34375 -8.59375 -7.34375 -8.59375 C -7.34375 -8.59375 -7.34375 -9.90625 -7.34375 -9.90625 Z M -7.34375 -9.90625 "/>
</g>
<g id="glyph-23-0-98f15205">
<path d="M -0.03125 -7.484375 C 0.0625 -7.109375 0.09375 -6.9375 0.09375 -6.6875 C 0.09375 -6.125 -0.3125 -5.609375 -0.875 -5.484375 C -0.1875 -4.84375 0.203125 -3.9375 0.203125 -3 C 0.203125 -1.515625 -0.578125 -0.59375 -1.90625 -0.59375 C -2.796875 -0.59375 -3.453125 -1.015625 -3.8125 -1.875 C -3.984375 -2.328125 -4.046875 -2.578125 -4.25 -4.234375 C -4.375 -5.15625 -4.578125 -5.453125 -5.0625 -5.453125 C -5.0625 -5.453125 -5.375 -5.453125 -5.375 -5.453125 C -6.078125 -5.453125 -6.46875 -4.859375 -6.46875 -3.8125 C -6.46875 -2.71875 -6.0625 -2.1875 -5.171875 -2.09375 C -5.171875 -2.09375 -5.171875 -0.90625 -5.171875 -0.90625 C -6.859375 -0.984375 -7.546875 -2.078125 -7.546875 -3.84375 C -7.546875 -5.65625 -6.84375 -6.609375 -5.546875 -6.609375 C -5.546875 -6.609375 -1.453125 -6.609375 -1.453125 -6.609375 C -1.09375 -6.609375 -0.875 -6.828125 -0.875 -7.234375 C -0.875 -7.3125 -0.875 -7.359375 -0.90625 -7.484375 C -0.90625 -7.484375 -0.03125 -7.484375 -0.03125 -7.484375 Z M -2.53125 -5.453125 C -2.53125 -5.453125 -3.625 -5.453125 -3.625 -5.453125 C -3.4375 -5.046875 -3.390625 -4.796875 -3.21875 -3.5625 C -3.03125 -2.328125 -2.703125 -1.8125 -1.9375 -1.8125 C -1.140625 -1.8125 -0.8125 -2.34375 -0.8125 -3.25 C -0.8125 -4.375 -1.484375 -5.453125 -2.53125 -5.453125 Z M -2.53125 -5.453125 "/>
</g>
<g id="glyph-23-1-98f15205">
<path d="M 0 -2.109375 C 0 -2.109375 0 -0.953125 0 -0.953125 C 0 -0.953125 -10.203125 -0.953125 -10.203125 -0.953125 C -10.203125 -0.953125 -10.203125 -2.109375 -10.203125 -2.109375 C -10.203125 -2.109375 0 -2.109375 0 -2.109375 Z M 0 -2.109375 "/>
</g>
<g id="glyph-24-0-98f15205">
<path d="M 0 -2.109375 C 0 -2.109375 0 -0.953125 0 -0.953125 C 0 -0.953125 -10.203125 -0.953125 -10.203125 -0.953125 C -10.203125 -0.953125 -10.203125 -2.109375 -10.203125 -2.109375 C -10.203125 -2.109375 0 -2.109375 0 -2.109375 Z M 0 -2.109375 "/>
</g>
<g id="glyph-25-0-98f15205">
<path d="M 0 -2.671875 C 0 -2.671875 0 -1.21875 0 -1.21875 C 0 -1.21875 -1.453125 -1.21875 -1.453125 -1.21875 C -1.453125 -1.21875 -1.453125 -2.671875 -1.453125 -2.671875 C -1.453125 -2.671875 0 -2.671875 0 -2.671875 Z M 0 -2.671875 "/>
</g>
<g id="glyph-25-1-98f15205">
<path d="M 2.96875 -4.078125 C 2.96875 -4.078125 2.96875 -3.296875 2.96875 -3.296875 C 1.140625 -1.90625 -1.40625 -1.015625 -3.625 -1.015625 C -5.828125 -1.015625 -8.375 -1.90625 -10.203125 -3.296875 C -10.203125 -3.296875 -10.203125 -4.078125 -10.203125 -4.078125 C -8.21875 -2.84375 -5.859375 -2.15625 -3.625 -2.15625 C -1.390625 -2.15625 0.96875 -2.84375 2.96875 -4.078125 Z M 2.96875 -4.078125 "/>
</g>
<g id="glyph-26-0-98f15205">
<path d="M 0 -3.5625 C 0.0625 -3.15625 0.09375 -2.890625 0.09375 -2.609375 C 0.09375 -1.6875 -0.328125 -1.1875 -1.0625 -1.1875 C -1.0625 -1.1875 -6.390625 -1.1875 -6.390625 -1.1875 C -6.390625 -1.1875 -6.390625 -0.203125 -6.390625 -0.203125 C -6.390625 -0.203125 -7.34375 -0.203125 -7.34375 -0.203125 C -7.34375 -0.203125 -7.34375 -1.1875 -7.34375 -1.1875 C -7.34375 -1.1875 -9.359375 -1.1875 -9.359375 -1.1875 C -9.359375 -1.1875 -9.359375 -2.359375 -9.359375 -2.359375 C -9.359375 -2.359375 -7.34375 -2.359375 -7.34375 -2.359375 C -7.34375 -2.359375 -7.34375 -3.5625 -7.34375 -3.5625 C -7.34375 -3.5625 -6.390625 -3.5625 -6.390625 -3.5625 C -6.390625 -3.5625 -6.390625 -2.359375 -6.390625 -2.359375 C -6.390625 -2.359375 -1.578125 -2.359375 -1.578125 -2.359375 C -1.0625 -2.359375 -0.921875 -2.484375 -0.921875 -3 C -0.921875 -3.21875 -0.9375 -3.40625 -0.984375 -3.5625 C -0.984375 -3.5625 0 -3.5625 0 -3.5625 Z M 0 -3.5625 "/>
</g>
<g id="glyph-27-0-98f15205">
<path d="M 0 -2.140625 C 0 -2.140625 0 -0.984375 0 -0.984375 C 0 -0.984375 -7.34375 -0.984375 -7.34375 -0.984375 C -7.34375 -0.984375 -7.34375 -2.140625 -7.34375 -2.140625 C -7.34375 -2.140625 0 -2.140625 0 -2.140625 Z M -8.4375 -2.296875 C -8.4375 -2.296875 -8.4375 -0.84375 -8.4375 -0.84375 C -8.4375 -0.84375 -9.890625 -0.84375 -9.890625 -0.84375 C -9.890625 -0.84375 -9.890625 -2.296875 -9.890625 -2.296875 C -9.890625 -2.296875 -8.4375 -2.296875 -8.4375 -2.296875 Z M -8.4375 -2.296875 "/>
</g>
<g id="glyph-28-0-98f15205">
<path d="M 0 -10.640625 C 0 -10.640625 0 -9.484375 0 -9.484375 C 0 -9.484375 -5.046875 -9.484375 -5.046875 -9.484375 C -5.984375 -9.484375 -6.53125 -8.984375 -6.53125 -8.140625 C -6.53125 -7.1875 -5.671875 -6.390625 -4.609375 -6.390625 C -4.609375 -6.390625 0 -6.390625 0 -6.390625 C 0 -6.390625 0 -5.234375 0 -5.234375 C 0 -5.234375 -5.046875 -5.234375 -5.046875 -5.234375 C -5.984375 -5.234375 -6.53125 -4.75 -6.53125 -3.875 C -6.53125 -2.921875 -5.671875 -2.15625 -4.609375 -2.15625 C -4.609375 -2.15625 0 -2.15625 0 -2.15625 C 0 -2.15625 0 -1 0 -1 C 0 -1 -7.34375 -1 -7.34375 -1 C -7.34375 -1 -7.34375 -2.0625 -7.34375 -2.0625 C -7.34375 -2.0625 -6.296875 -2.0625 -6.296875 -2.0625 C -7.1875 -2.6875 -7.546875 -3.328125 -7.546875 -4.3125 C -7.546875 -5.265625 -7.203125 -5.859375 -6.421875 -6.28125 C -7.25 -6.96875 -7.546875 -7.5625 -7.546875 -8.546875 C -7.546875 -9.90625 -6.8125 -10.640625 -5.5 -10.640625 C -5.5 -10.640625 0 -10.640625 0 -10.640625 Z M 0 -10.640625 "/>
</g>
<g id="glyph-29-0-98f15205">
<path d="M -3.328125 -7.1875 C -3.328125 -7.1875 -3.328125 -1.78125 -3.328125 -1.78125 C -1.65625 -1.8125 -0.875 -2.71875 -0.875 -3.9375 C -0.875 -4.875 -1.265625 -5.53125 -2.21875 -5.859375 C -2.21875 -5.859375 -2.21875 -7.03125 -2.21875 -7.03125 C -0.734375 -6.734375 0.203125 -5.578125 0.203125 -3.890625 C 0.203125 -1.828125 -1.21875 -0.5625 -3.625 -0.5625 C -6.03125 -0.5625 -7.546875 -1.875 -7.546875 -3.921875 C -7.546875 -5.296875 -6.8125 -6.40625 -5.609375 -6.890625 C -5.0625 -7.09375 -4.390625 -7.1875 -3.328125 -7.1875 Z M -4.375 -5.9375 C -5.515625 -5.9375 -6.46875 -5.046875 -6.46875 -3.90625 C -6.46875 -2.734375 -5.59375 -1.90625 -4.28125 -1.8125 C -4.28125 -1.8125 -4.28125 -5.921875 -4.28125 -5.921875 C -4.3125 -5.9375 -4.375 -5.9375 -4.375 -5.9375 Z M -4.375 -5.9375 "/>
</g>
<g id="glyph-30-0-98f15205">
</g>
<g id="glyph-30-1-98f15205">
<path d="M -2.0625 -6.421875 C -0.640625 -6.421875 0.203125 -5.25 0.203125 -3.40625 C 0.203125 -1.484375 -0.546875 -0.53125 -2.234375 -0.46875 C -2.234375 -0.46875 -2.234375 -1.703125 -2.234375 -1.703125 C -1.125 -1.859375 -0.875 -2.453125 -0.875 -3.5 C -0.875 -4.515625 -1.28125 -5.203125 -1.953125 -5.203125 C -2.484375 -5.203125 -2.734375 -4.890625 -2.921875 -4.078125 C -2.921875 -4.078125 -3.1875 -2.984375 -3.1875 -2.984375 C -3.609375 -1.25 -4.15625 -0.65625 -5.3125 -0.65625 C -6.65625 -0.65625 -7.546875 -1.765625 -7.546875 -3.46875 C -7.546875 -5.171875 -6.734375 -6.125 -5.296875 -6.125 C -5.296875 -6.125 -5.296875 -4.90625 -5.296875 -4.90625 C -6.0625 -4.875 -6.46875 -4.375 -6.46875 -3.4375 C -6.46875 -2.484375 -6.03125 -1.875 -5.359375 -1.875 C -4.84375 -1.875 -4.53125 -2.28125 -4.3125 -3.234375 C -4.3125 -3.234375 -4.046875 -4.359375 -4.046875 -4.359375 C -3.703125 -5.8125 -3.15625 -6.421875 -2.0625 -6.421875 Z M -2.0625 -6.421875 "/>
</g>
<g id="glyph-31-0-98f15205">
<path d="M 0 -6.8125 C 0 -6.8125 0 -5.65625 0 -5.65625 C 0 -5.65625 -5.078125 -5.65625 -5.078125 -5.65625 C -5.96875 -5.65625 -6.53125 -5.0625 -6.53125 -4.140625 C -6.53125 -2.953125 -5.546875 -2.140625 -4.046875 -2.140625 C -4.046875 -2.140625 0 -2.140625 0 -2.140625 C 0 -2.140625 0 -0.984375 0 -0.984375 C 0 -0.984375 -7.34375 -0.984375 -7.34375 -0.984375 C -7.34375 -0.984375 -7.34375 -2.0625 -7.34375 -2.0625 C -7.34375 -2.0625 -6.109375 -2.0625 -6.109375 -2.0625 C -7.125 -2.703125 -7.546875 -3.40625 -7.546875 -4.5 C -7.546875 -5.90625 -6.765625 -6.8125 -5.546875 -6.8125 C -5.546875 -6.8125 0 -6.8125 0 -6.8125 Z M 0 -6.8125 "/>
</g>
<g id="glyph-32-0-98f15205">
<path d="M -3.609375 -3.578125 C -1.40625 -3.578125 1.140625 -2.703125 2.96875 -1.296875 C 2.96875 -1.296875 2.96875 -0.53125 2.96875 -0.53125 C 0.984375 -1.765625 -1.390625 -2.453125 -3.609375 -2.453125 C -5.859375 -2.453125 -8.203125 -1.765625 -10.203125 -0.53125 C -10.203125 -0.53125 -10.203125 -1.296875 -10.203125 -1.296875 C -8.375 -2.703125 -5.828125 -3.578125 -3.609375 -3.578125 Z M -3.609375 -3.578125 "/>
</g>
<g id="glyph-33-0-98f15205">
<path d="M 9.53125 -5.109375 C 9.53125 -3.53125 9.09375 -2.140625 8.28125 -1.1875 C 7.59375 -0.359375 6.625 0 5.0625 0 C 5.0625 0 1.078125 0 1.078125 0 C 1.078125 0 1.078125 -10.203125 1.078125 -10.203125 C 1.078125 -10.203125 5.0625 -10.203125 5.0625 -10.203125 C 6.640625 -10.203125 7.609375 -9.859375 8.28125 -9.03125 C 9.09375 -8.0625 9.53125 -6.671875 9.53125 -5.109375 Z M 7.4375 -5.09375 C 7.4375 -7.34375 6.65625 -8.453125 5.0625 -8.453125 C 5.0625 -8.453125 3.171875 -8.453125 3.171875 -8.453125 C 3.171875 -8.453125 3.171875 -1.75 3.171875 -1.75 C 3.171875 -1.75 5.0625 -1.75 5.0625 -1.75 C 6.65625 -1.75 7.4375 -2.859375 7.4375 -5.09375 Z M 7.4375 -5.09375 "/>
</g>
<g id="glyph-33-1-98f15205">
<path d="M 7.34375 0 C 7.34375 0 5.203125 0 5.203125 0 C 5.03125 -0.21875 4.984375 -0.5625 4.984375 -0.953125 C 4.296875 -0.234375 3.53125 0.125 2.6875 0.125 C 1.421875 0.125 0.390625 -0.578125 0.390625 -2.046875 C 0.390625 -3.421875 1.125 -4.0625 2.625 -4.328125 C 2.625 -4.328125 3.40625 -4.46875 3.40625 -4.46875 C 4.375 -4.640625 4.96875 -4.546875 4.96875 -5.34375 C 4.96875 -5.859375 4.59375 -6.109375 3.84375 -6.109375 C 2.875 -6.109375 2.546875 -5.859375 2.453125 -5.0625 C 2.453125 -5.0625 0.5625 -5.0625 0.5625 -5.0625 C 0.6875 -6.8125 1.75 -7.6875 3.796875 -7.6875 C 5.84375 -7.6875 6.890625 -6.90625 6.890625 -5.359375 C 6.890625 -5.359375 6.890625 -1.15625 6.890625 -1.15625 C 6.890625 -0.765625 6.984375 -0.5625 7.34375 -0.234375 C 7.34375 -0.234375 7.34375 0 7.34375 0 Z M 4.96875 -3.234375 C 4.96875 -3.234375 4.96875 -3.5625 4.96875 -3.5625 C 4.75 -3.453125 4.65625 -3.4375 4.140625 -3.328125 C 4.140625 -3.328125 3.46875 -3.203125 3.46875 -3.203125 C 2.65625 -3.046875 2.359375 -2.84375 2.359375 -2.265625 C 2.359375 -1.703125 2.765625 -1.453125 3.421875 -1.453125 C 4.40625 -1.453125 4.96875 -2.09375 4.96875 -3.234375 Z M 4.96875 -3.234375 "/>
</g>
<g id="glyph-33-2-98f15205">
<path d="M 4.21875 0 C 3.859375 0.015625 3.515625 0.0625 3.078125 0.0625 C 1.796875 0.0625 1.15625 -0.4375 1.15625 -1.625 C 1.15625 -1.625 1.15625 -6.109375 1.15625 -6.109375 C 1.15625 -6.109375 0.203125 -6.109375 0.203125 -6.109375 C 0.203125 -6.109375 0.203125 -7.40625 0.203125 -7.40625 C 0.203125 -7.40625 1.15625 -7.40625 1.15625 -7.40625 C 1.15625 -7.40625 1.15625 -9.4375 1.15625 -9.4375 C 1.15625 -9.4375 3.125 -9.4375 3.125 -9.4375 C 3.125 -9.4375 3.125 -7.40625 3.125 -7.40625 C 3.125 -7.40625 4.21875 -7.40625 4.21875 -7.40625 C 4.21875 -7.40625 4.21875 -6.109375 4.21875 -6.109375 C 4.21875 -6.109375 3.125 -6.109375 3.125 -6.109375 C 3.125 -6.109375 3.125 -2.15625 3.125 -2.15625 C 3.125 -1.484375 3.25 -1.328125 3.765625 -1.328125 C 3.90625 -1.328125 4.015625 -1.34375 4.21875 -1.375 C 4.21875 -1.375 4.21875 0 4.21875 0 Z M 4.21875 0 "/>
</g>
<g id="glyph-33-3-98f15205">
<path d="M 8.859375 -3.0625 C 8.859375 -1 7.3125 0.171875 4.671875 0.171875 C 2.078125 0.171875 0.453125 -1.015625 0.453125 -3.203125 C 0.453125 -3.203125 2.484375 -3.203125 2.484375 -3.203125 C 2.484375 -2.109375 3.359375 -1.515625 4.78125 -1.515625 C 6.0625 -1.515625 6.84375 -1.953125 6.84375 -2.8125 C 6.84375 -3.640625 6.328125 -3.9375 4.921875 -4.21875 C 4.921875 -4.21875 3.5 -4.5 3.5 -4.5 C 1.421875 -4.90625 0.625 -5.640625 0.625 -7.234375 C 0.625 -9.21875 2.046875 -10.375 4.5 -10.375 C 6.984375 -10.375 8.5 -9.25 8.5 -7.09375 C 8.5 -7.09375 6.53125 -7.09375 6.53125 -7.09375 C 6.53125 -8.140625 5.71875 -8.6875 4.390625 -8.6875 C 3.3125 -8.6875 2.625 -8.203125 2.625 -7.4375 C 2.625 -6.6875 3.0625 -6.390625 4.5625 -6.109375 C 4.5625 -6.109375 6.15625 -5.796875 6.15625 -5.796875 C 8.046875 -5.4375 8.859375 -4.671875 8.859375 -3.0625 Z M 8.859375 -3.0625 "/>
</g>
<g id="glyph-33-4-98f15205">
<path d="M 5.1875 -5.6875 C 4.90625 -5.71875 4.78125 -5.734375 4.5625 -5.734375 C 3.421875 -5.734375 2.84375 -5.171875 2.84375 -4.015625 C 2.84375 -4.015625 2.84375 0 2.84375 0 C 2.84375 0 0.875 0 0.875 0 C 0.875 0 0.875 -7.5625 0.875 -7.5625 C 0.875 -7.5625 2.84375 -7.5625 2.84375 -7.5625 C 2.84375 -7.5625 2.84375 -6.078125 2.84375 -6.078125 C 3.265625 -7.09375 4.046875 -7.6875 4.9375 -7.6875 C 5 -7.6875 5.0625 -7.6875 5.1875 -7.671875 C 5.1875 -7.671875 5.1875 -5.6875 5.1875 -5.6875 Z M 5.1875 -5.6875 "/>
</g>
<g id="glyph-33-5-98f15205">
<path d="M 7.578125 0 C 7.578125 0 5.609375 0 5.609375 0 C 5.609375 0 5.609375 -1 5.609375 -1 C 5.046875 -0.25 4.375 0.125 3.34375 0.125 C 1.734375 0.125 0.8125 -0.828125 0.8125 -2.484375 C 0.8125 -2.484375 0.8125 -7.5625 0.8125 -7.5625 C 0.8125 -7.5625 2.765625 -7.5625 2.765625 -7.5625 C 2.765625 -7.5625 2.765625 -2.890625 2.765625 -2.890625 C 2.765625 -1.984375 3.1875 -1.546875 4.03125 -1.546875 C 4.984375 -1.546875 5.609375 -2.125 5.609375 -3.03125 C 5.609375 -3.03125 5.609375 -7.5625 5.609375 -7.5625 C 5.609375 -7.5625 7.578125 -7.5625 7.578125 -7.5625 C 7.578125 -7.5625 7.578125 0 7.578125 0 Z M 7.578125 0 "/>
</g>
<g id="glyph-33-6-98f15205">
<path d="M 7.3125 -2.625 C 7.125 -1.015625 5.859375 0.125 4.015625 0.125 C 1.78125 0.125 0.46875 -1.234375 0.46875 -3.71875 C 0.46875 -6.296875 1.796875 -7.6875 4.046875 -7.6875 C 5.9375 -7.6875 7.171875 -6.578125 7.3125 -4.734375 C 7.3125 -4.734375 5.4375 -4.734375 5.4375 -4.734375 C 5.203125 -5.71875 4.828125 -6.109375 4.03125 -6.109375 C 2.796875 -6.109375 2.4375 -5.109375 2.4375 -3.71875 C 2.4375 -2.25 3.03125 -1.453125 4.03125 -1.453125 C 4.78125 -1.453125 5.1875 -1.828125 5.4375 -2.625 C 5.4375 -2.625 7.3125 -2.625 7.3125 -2.625 Z M 7.3125 -2.625 "/>
</g>
<g id="glyph-33-7-98f15205">
<path d="M 7.34375 -3.5 C 7.34375 -3.5 7.34375 -3.265625 7.34375 -3.265625 C 7.34375 -3.265625 2.265625 -3.265625 2.265625 -3.265625 C 2.328125 -1.796875 2.90625 -1.375 3.84375 -1.375 C 4.546875 -1.375 5.171875 -1.578125 5.328125 -2.125 C 5.328125 -2.125 7.265625 -2.125 7.265625 -2.125 C 6.828125 -0.640625 5.453125 0.125 3.765625 0.125 C 1.625 0.125 0.3125 -1.265625 0.3125 -3.6875 C 0.3125 -6.21875 1.640625 -7.6875 3.8125 -7.6875 C 6.03125 -7.6875 7.34375 -6.109375 7.34375 -3.5 Z M 5.3125 -4.5625 C 5.203125 -5.640625 4.625 -6.1875 3.78125 -6.1875 C 2.90625 -6.1875 2.421875 -5.609375 2.296875 -4.5625 C 2.296875 -4.5625 5.3125 -4.5625 5.3125 -4.5625 Z M 5.3125 -4.5625 "/>
</g>
<g id="glyph-33-8-98f15205">
<path d="M 7.28125 -2.234375 C 7.28125 -0.71875 6.109375 0.125 3.96875 0.125 C 1.6875 0.125 0.46875 -0.734375 0.40625 -2.390625 C 0.40625 -2.390625 2.328125 -2.390625 2.328125 -2.390625 C 2.484375 -1.578125 2.96875 -1.40625 3.859375 -1.40625 C 4.78125 -1.40625 5.3125 -1.59375 5.3125 -2.0625 C 5.3125 -2.265625 5.15625 -2.421875 4.65625 -2.578125 C 4.65625 -2.578125 2.328125 -3.296875 2.328125 -3.296875 C 0.921875 -3.734375 0.671875 -4.234375 0.671875 -5.171875 C 0.671875 -6.71875 1.859375 -7.6875 3.78125 -7.6875 C 5.8125 -7.6875 7.046875 -6.71875 7.0625 -5.125 C 7.0625 -5.125 5.1875 -5.125 5.1875 -5.125 C 5.171875 -5.8125 4.703125 -6.140625 3.765625 -6.140625 C 3.078125 -6.140625 2.625 -5.859375 2.625 -5.453125 C 2.625 -5.140625 2.765625 -5.015625 3.3125 -4.859375 C 3.3125 -4.859375 5.796875 -4.140625 5.796875 -4.140625 C 6.796875 -3.84375 7.28125 -3.203125 7.28125 -2.34375 C 7.28125 -2.34375 7.28125 -2.234375 7.28125 -2.234375 Z M 7.28125 -2.234375 "/>
</g>
<g id="glyph-33-9-98f15205">
</g>
<g id="glyph-33-10-98f15205">
<path d="M 3 -3.5 C 3 -2.921875 2.515625 -2.453125 1.953125 -2.453125 C 1.375 -2.453125 0.890625 -2.921875 0.890625 -3.5 C 0.890625 -4.078125 1.375 -4.546875 1.953125 -4.546875 C 2.515625 -4.546875 3 -4.078125 3 -3.5 Z M 3 -3.5 "/>
</g>
<g id="glyph-33-11-98f15205">
<path d="M 10.390625 -5.046875 C 10.390625 -2.0625 8.4375 0.171875 5.46875 0.171875 C 2.484375 0.171875 0.5625 -2.0625 0.5625 -5.109375 C 0.5625 -8.03125 2.46875 -10.375 5.453125 -10.375 C 8.4375 -10.375 10.390625 -8.125 10.390625 -5.046875 Z M 8.28125 -5.046875 C 8.28125 -7.1875 7.203125 -8.578125 5.46875 -8.578125 C 3.78125 -8.578125 2.65625 -7.171875 2.65625 -5.109375 C 2.65625 -2.96875 3.78125 -1.625 5.46875 -1.625 C 7.15625 -1.625 8.28125 -2.96875 8.28125 -5.046875 Z M 8.28125 -5.046875 "/>
</g>
<g id="glyph-33-12-98f15205">
<path d="M 7.625 0 C 7.625 0 5.671875 0 5.671875 0 C 5.671875 0 5.671875 -0.875 5.671875 -0.875 C 5.1875 -0.21875 4.515625 0.125 3.578125 0.125 C 1.578125 0.125 0.40625 -1.625 0.40625 -3.765625 C 0.40625 -6.046875 1.78125 -7.6875 3.578125 -7.6875 C 4.515625 -7.6875 5.1875 -7.34375 5.671875 -6.578125 C 5.671875 -6.578125 5.671875 -10.203125 5.671875 -10.203125 C 5.671875 -10.203125 7.625 -10.203125 7.625 -10.203125 C 7.625 -10.203125 7.625 0 7.625 0 Z M 5.671875 -3.734375 C 5.671875 -5.1875 5.015625 -6.046875 4.015625 -6.046875 C 3.03125 -6.046875 2.359375 -5.171875 2.359375 -3.765625 C 2.359375 -2.375 3.03125 -1.515625 4.015625 -1.515625 C 5 -1.515625 5.671875 -2.359375 5.671875 -3.734375 Z M 5.671875 -3.734375 "/>
</g>
<g id="glyph-33-13-98f15205">
<path d="M 9.484375 0 C 9.484375 0 7.21875 0 7.21875 0 C 6.953125 -0.484375 6.90625 -0.796875 6.90625 -1.75 C 6.90625 -1.75 6.9375 -2.828125 6.9375 -2.828125 C 6.9375 -3.6875 6.53125 -4.046875 5.625 -4.046875 C 5.625 -4.046875 3.21875 -4.046875 3.21875 -4.046875 C 3.21875 -4.046875 3.21875 0 3.21875 0 C 3.21875 0 1.125 0 1.125 0 C 1.125 0 1.125 -10.203125 1.125 -10.203125 C 1.125 -10.203125 6.59375 -10.203125 6.59375 -10.203125 C 8.40625 -10.203125 9.34375 -9.03125 9.34375 -7.453125 C 9.34375 -6.203125 8.765625 -5.375 7.609375 -4.921875 C 8.921875 -4.375 8.96875 -4.234375 9.03125 -1.21875 C 9.03125 -0.765625 9.15625 -0.5625 9.484375 -0.375 C 9.484375 -0.375 9.484375 0 9.484375 0 Z M 7.234375 -7.15625 C 7.234375 -8.03125 6.90625 -8.453125 5.75 -8.453125 C 5.75 -8.453125 3.21875 -8.453125 3.21875 -8.453125 C 3.21875 -8.453125 3.21875 -5.796875 3.21875 -5.796875 C 3.21875 -5.796875 5.75 -5.796875 5.75 -5.796875 C 6.9375 -5.796875 7.234375 -6.25 7.234375 -7.15625 Z M 7.234375 -7.15625 "/>
</g>
<g id="glyph-33-14-98f15205">
<path d="M 7.96875 -3.71875 C 7.96875 -1.296875 6.53125 0.125 4.234375 0.125 C 1.90625 0.125 0.484375 -1.28125 0.484375 -3.78125 C 0.484375 -6.265625 1.90625 -7.6875 4.21875 -7.6875 C 6.578125 -7.6875 7.96875 -6.28125 7.96875 -3.71875 Z M 6 -3.75 C 6 -5.234375 5.3125 -6.109375 4.234375 -6.109375 C 3.15625 -6.109375 2.453125 -5.21875 2.453125 -3.78125 C 2.453125 -2.34375 3.15625 -1.453125 4.234375 -1.453125 C 5.28125 -1.453125 6 -2.34375 6 -3.75 Z M 6 -3.75 "/>
</g>
<g id="glyph-33-15-98f15205">
<path d="M 8.046875 -3.6875 C 8.046875 -1.40625 6.671875 0.125 4.875 0.125 C 3.921875 0.125 3.265625 -0.21875 2.78125 -0.875 C 2.78125 -0.875 2.78125 0 2.78125 0 C 2.78125 0 0.828125 0 0.828125 0 C 0.828125 0 0.828125 -10.203125 0.828125 -10.203125 C 0.828125 -10.203125 2.78125 -10.203125 2.78125 -10.203125 C 2.78125 -10.203125 2.78125 -6.578125 2.78125 -6.578125 C 3.265625 -7.34375 3.9375 -7.6875 4.875 -7.6875 C 6.859375 -7.6875 8.046875 -5.828125 8.046875 -3.6875 Z M 6.09375 -3.765625 C 6.09375 -5.171875 5.40625 -6.046875 4.4375 -6.046875 C 3.453125 -6.046875 2.78125 -5.1875 2.78125 -3.8125 C 2.78125 -2.359375 3.4375 -1.515625 4.4375 -1.515625 C 5.40625 -1.515625 6.09375 -2.390625 6.09375 -3.765625 Z M 6.09375 -3.765625 "/>
</g>
<g id="glyph-33-16-98f15205">
<path d="M 2.890625 0 C 2.890625 0 0.9375 0 0.9375 0 C 0.9375 0 0.9375 -7.5625 0.9375 -7.5625 C 0.9375 -7.5625 2.890625 -7.5625 2.890625 -7.5625 C 2.890625 -7.5625 2.890625 0 2.890625 0 Z M 2.921875 -8.46875 C 2.921875 -8.46875 0.96875 -8.46875 0.96875 -8.46875 C 0.96875 -8.46875 0.96875 -10.4375 0.96875 -10.4375 C 0.96875 -10.4375 2.921875 -10.4375 2.921875 -10.4375 C 2.921875 -10.4375 2.921875 -8.46875 2.921875 -8.46875 Z M 2.921875 -8.46875 "/>
</g>
<g id="glyph-33-17-98f15205">
<path d="M 7.640625 0 C 7.640625 0 5.6875 0 5.6875 0 C 5.6875 0 5.6875 -4.65625 5.6875 -4.65625 C 5.6875 -5.5625 5.265625 -6.015625 4.421875 -6.015625 C 3.46875 -6.015625 2.84375 -5.4375 2.84375 -4.53125 C 2.84375 -4.53125 2.84375 0 2.84375 0 C 2.84375 0 0.875 0 0.875 0 C 0.875 0 0.875 -7.5625 0.875 -7.5625 C 0.875 -7.5625 2.84375 -7.5625 2.84375 -7.5625 C 2.84375 -7.5625 2.84375 -6.46875 2.84375 -6.46875 C 3.40625 -7.3125 4.09375 -7.6875 5.109375 -7.6875 C 6.71875 -7.6875 7.640625 -6.734375 7.640625 -5.0625 C 7.640625 -5.0625 7.640625 0 7.640625 0 Z M 7.640625 0 "/>
</g>
<g id="glyph-33-18-98f15205">
<path d="M 8.09375 2.640625 C 8.09375 2.640625 -0.3125 2.640625 -0.3125 2.640625 C -0.3125 2.640625 -0.3125 1.6875 -0.3125 1.6875 C -0.3125 1.6875 8.09375 1.6875 8.09375 1.6875 C 8.09375 1.6875 8.09375 2.640625 8.09375 2.640625 Z M 8.09375 2.640625 "/>
</g>
<g id="glyph-33-19-98f15205">
<path d="M 2.890625 0 C 2.890625 0 0.9375 0 0.9375 0 C 0.9375 0 0.9375 -10.203125 0.9375 -10.203125 C 0.9375 -10.203125 2.890625 -10.203125 2.890625 -10.203125 C 2.890625 -10.203125 2.890625 0 2.890625 0 Z M 2.890625 0 "/>
</g>
<g id="glyph-33-20-98f15205">
<path d="M 7.671875 0 C 7.671875 0 5.375 0 5.375 0 C 5.375 0 3.5625 -3.328125 3.5625 -3.328125 C 3.5625 -3.328125 2.78125 -2.484375 2.78125 -2.484375 C 2.78125 -2.484375 2.78125 0 2.78125 0 C 2.78125 0 0.828125 0 0.828125 0 C 0.828125 0 0.828125 -10.203125 0.828125 -10.203125 C 0.828125 -10.203125 2.78125 -10.203125 2.78125 -10.203125 C 2.78125 -10.203125 2.78125 -4.625 2.78125 -4.625 C 2.78125 -4.625 5.265625 -7.5625 5.265625 -7.5625 C 5.265625 -7.5625 7.484375 -7.5625 7.484375 -7.5625 C 7.484375 -7.5625 4.90625 -4.703125 4.90625 -4.703125 C 4.90625 -4.703125 7.671875 0 7.671875 0 Z M 7.671875 0 "/>
</g>
<g id="glyph-33-21-98f15205">
<path d="M 8.03125 -3.78125 C 8.03125 -1.484375 6.6875 0.125 4.875 0.125 C 3.921875 0.125 3.25 -0.171875 2.765625 -1.015625 C 2.765625 -1.015625 2.765625 3.046875 2.765625 3.046875 C 2.765625 3.046875 0.8125 3.046875 0.8125 3.046875 C 0.8125 3.046875 0.8125 -7.5625 0.8125 -7.5625 C 0.8125 -7.5625 2.765625 -7.5625 2.765625 -7.5625 C 2.765625 -7.5625 2.765625 -6.4375 2.765625 -6.4375 C 3.25 -7.28125 3.921875 -7.6875 4.875 -7.6875 C 6.84375 -7.6875 8.03125 -6.015625 8.03125 -3.78125 Z M 6.078125 -3.75 C 6.078125 -5.1875 5.421875 -6.046875 4.421875 -6.046875 C 3.4375 -6.046875 2.765625 -5.1875 2.765625 -3.78125 C 2.765625 -2.359375 3.4375 -1.515625 4.421875 -1.515625 C 5.390625 -1.515625 6.078125 -2.375 6.078125 -3.75 Z M 6.078125 -3.75 "/>
</g>
<g id="glyph-33-22-98f15205">
<path d="M 7.578125 0 C 7.578125 0 5.609375 0 5.609375 0 C 5.609375 0 5.609375 -4.625 5.609375 -4.625 C 5.609375 -5.640625 5.109375 -6.015625 4.40625 -6.015625 C 3.53125 -6.015625 2.890625 -5.40625 2.890625 -4.53125 C 2.890625 -4.53125 2.890625 0 2.890625 0 C 2.890625 0 0.9375 0 0.9375 0 C 0.9375 0 0.9375 -10.203125 0.9375 -10.203125 C 0.9375 -10.203125 2.890625 -10.203125 2.890625 -10.203125 C 2.890625 -10.203125 2.890625 -6.46875 2.890625 -6.46875 C 3.4375 -7.296875 4.140625 -7.6875 5.109375 -7.6875 C 6.53125 -7.6875 7.578125 -6.828125 7.578125 -5.0625 C 7.578125 -5.0625 7.578125 0 7.578125 0 Z M 7.578125 0 "/>
</g>
<g id="glyph-33-23-98f15205">
<path d="M 11.53125 0 C 11.53125 0 9.578125 0 9.578125 0 C 9.578125 0 9.578125 -5.046875 9.578125 -5.046875 C 9.578125 -5.640625 9.171875 -6.015625 8.515625 -6.015625 C 7.671875 -6.015625 7.171875 -5.453125 7.171875 -4.53125 C 7.171875 -4.53125 7.171875 0 7.171875 0 C 7.171875 0 5.203125 0 5.203125 0 C 5.203125 0 5.203125 -5.046875 5.203125 -5.046875 C 5.203125 -5.640625 4.796875 -6.015625 4.140625 -6.015625 C 3.296875 -6.015625 2.796875 -5.453125 2.796875 -4.53125 C 2.796875 -4.53125 2.796875 0 2.796875 0 C 2.796875 0 0.84375 0 0.84375 0 C 0.84375 0 0.84375 -7.5625 0.84375 -7.5625 C 0.84375 -7.5625 2.78125 -7.5625 2.78125 -7.5625 C 2.78125 -7.5625 2.78125 -6.625 2.78125 -6.625 C 3.4375 -7.390625 3.984375 -7.6875 4.859375 -7.6875 C 5.796875 -7.6875 6.546875 -7.28125 6.921875 -6.5625 C 7.5 -7.34375 8.171875 -7.6875 9.125 -7.6875 C 10.640625 -7.6875 11.53125 -6.8125 11.53125 -5.34375 C 11.53125 -5.34375 11.53125 0 11.53125 0 Z M 11.53125 0 "/>
</g>
<g id="glyph-33-24-98f15205">
<path d="M 2.9375 1.3125 C 2.9375 2.546875 2.4375 3.046875 1.21875 3.046875 C 0.9375 3.046875 0.453125 3.03125 0.0625 2.984375 C 0.0625 2.984375 0.0625 1.40625 0.0625 1.40625 C 0.203125 1.453125 0.28125 1.46875 0.40625 1.46875 C 0.828125 1.46875 0.984375 1.3125 0.984375 0.875 C 0.984375 0.875 0.984375 -7.5625 0.984375 -7.5625 C 0.984375 -7.5625 2.9375 -7.5625 2.9375 -7.5625 C 2.9375 -7.5625 2.9375 1.3125 2.9375 1.3125 Z M 2.9375 -8.46875 C 2.9375 -8.46875 0.984375 -8.46875 0.984375 -8.46875 C 0.984375 -8.46875 0.984375 -10.4375 0.984375 -10.4375 C 0.984375 -10.4375 2.9375 -10.4375 2.9375 -10.4375 C 2.9375 -10.4375 2.9375 -8.46875 2.9375 -8.46875 Z M 2.9375 -8.46875 "/>
</g>
<g id="glyph-33-25-98f15205">
<path d="M 3 0 C 3 0 0.890625 0 0.890625 0 C 0.890625 0 0.890625 -2.046875 0.890625 -2.046875 C 0.890625 -2.046875 3 -2.046875 3 -2.046875 C 3 -2.046875 3 0 3 0 Z M 3 0 "/>
</g>
<g id="glyph-33-26-98f15205">
<path d="M 10.71875 -7.5625 C 10.71875 -7.5625 8.578125 0 8.578125 0 C 8.578125 0 6.546875 0 6.546875 0 C 6.546875 0 5.421875 -5.328125 5.421875 -5.328125 C 5.421875 -5.328125 4.21875 0 4.21875 0 C 4.21875 0 2.203125 0 2.203125 0 C 2.203125 0 0.0625 -7.5625 0.0625 -7.5625 C 0.0625 -7.5625 2.09375 -7.5625 2.09375 -7.5625 C 2.09375 -7.5625 3.296875 -2.265625 3.296875 -2.265625 C 3.296875 -2.265625 4.453125 -7.5625 4.453125 -7.5625 C 4.453125 -7.5625 6.40625 -7.5625 6.40625 -7.5625 C 6.40625 -7.5625 7.546875 -2.265625 7.546875 -2.265625 C 7.546875 -2.265625 8.6875 -7.5625 8.6875 -7.5625 C 8.6875 -7.5625 10.71875 -7.5625 10.71875 -7.5625 Z M 10.71875 -7.5625 "/>
</g>
<g id="glyph-34-0-98f15205">
<path d="M 7.625 0 C 7.625 0 5.671875 0 5.671875 0 C 5.671875 0 5.671875 -0.875 5.671875 -0.875 C 5.1875 -0.21875 4.515625 0.125 3.578125 0.125 C 1.578125 0.125 0.40625 -1.625 0.40625 -3.765625 C 0.40625 -6.046875 1.78125 -7.6875 3.578125 -7.6875 C 4.515625 -7.6875 5.1875 -7.34375 5.671875 -6.578125 C 5.671875 -6.578125 5.671875 -10.203125 5.671875 -10.203125 C 5.671875 -10.203125 7.625 -10.203125 7.625 -10.203125 C 7.625 -10.203125 7.625 0 7.625 0 Z M 5.671875 -3.734375 C 5.671875 -5.1875 5.015625 -6.046875 4.015625 -6.046875 C 3.03125 -6.046875 2.359375 -5.171875 2.359375 -3.765625 C 2.359375 -2.375 3.03125 -1.515625 4.015625 -1.515625 C 5 -1.515625 5.671875 -2.359375 5.671875 -3.734375 Z M 5.671875 -3.734375 "/>
</g>
</g>
</defs>
<rect x="-110" y="-62" width="1320" height="744" fill="rgb(95.999998%, 97.000003%, 99.000001%)" fill-opacity="1"/>
<path fill-rule="nonzero" fill="rgb(100%, 100%, 100%)" fill-opacity="1" d="M 77 539 L 1084 539 L 1084 36 L 77 36 Z M 77 539 "/>
<path fill="none" stroke-width="1" stroke-linecap="butt" stroke-linejoin="miter" stroke="rgb(50.196081%, 50.196081%, 50.196081%)" stroke-opacity="0.16" stroke-miterlimit="1.154701" d="M 122.773438 539 L 122.773438 36 "/>
<path fill="none" stroke-width="1" stroke-linecap="butt" stroke-linejoin="miter" stroke="rgb(50.196081%, 50.196081%, 50.196081%)" stroke-opacity="0.16" stroke-miterlimit="1.154701" d="M 275.347656 539 L 275.347656 36 "/>
<path fill="none" stroke-width="1" stroke-linecap="butt" stroke-linejoin="miter" stroke="rgb(50.196081%, 50.196081%, 50.196081%)" stroke-opacity="0.16" stroke-miterlimit="1.154701" d="M 427.925781 539 L 427.925781 36 "/>
<path fill="none" stroke-width="1" stroke-linecap="butt" stroke-linejoin="miter" stroke="rgb(50.196081%, 50.196081%, 50.196081%)" stroke-opacity="0.16" stroke-miterlimit="1.154701" d="M 580.5 539 L 580.5 36 "/>
<path fill="none" stroke-width="1" stroke-linecap="butt" stroke-linejoin="miter" stroke="rgb(50.196081%, 50.196081%, 50.196081%)" stroke-opacity="0.16" stroke-miterlimit="1.154701" d="M 733.074219 539 L 733.074219 36 "/>
<path fill="none" stroke-width="1" stroke-linecap="butt" stroke-linejoin="miter" stroke="rgb(50.196081%, 50.196081%, 50.196081%)" stroke-opacity="0.16" stroke-miterlimit="1.154701" d="M 885.652344 539 L 885.652344 36 "/>
<path fill="none" stroke-width="1" stroke-linecap="butt" stroke-linejoin="miter" stroke="rgb(50.196081%, 50.196081%, 50.196081%)" stroke-opacity="0.16" stroke-miterlimit="1.154701" d="M 1038.226563 539 L 1038.226563 36 "/>
<path fill="none" stroke-width="1" stroke-linecap="butt" stroke-linejoin="miter" stroke="rgb(50.196081%, 50.196081%, 50.196081%)" stroke-opacity="0.16" stroke-miterlimit="1.154701" d="M 77 482.78125 L 1084 482.78125 "/>
<path fill="none" stroke-width="1" stroke-linecap="butt" stroke-linejoin="miter" stroke="rgb(50.196081%, 50.196081%, 50.196081%)" stroke-opacity="0.16" stroke-miterlimit="1.154701" d="M 77 333.8125 L 1084 333.8125 "/>
<path fill="none" stroke-width="1" stroke-linecap="butt" stroke-linejoin="miter" stroke="rgb(50.196081%, 50.196081%, 50.196081%)" stroke-opacity="0.16" stroke-miterlimit="1.154701" d="M 77 207.851563 L 1084 207.851563 "/>
<path fill="none" stroke-width="1" stroke-linecap="butt" stroke-linejoin="miter" stroke="rgb(50.196081%, 50.196081%, 50.196081%)" stroke-opacity="0.16" stroke-miterlimit="1.154701" d="M 77 98.734375 L 1084 98.734375 "/>
<g fill="rgb(0%, 0%, 0%)" fill-opacity="1">
<use xlink:href="#glyph-0-0-98f15205" x="529.533005" y="602.311509"/>
<use xlink:href="#glyph-0-1-98f15205" x="537.317005" y="602.311509"/>
<use xlink:href="#glyph-0-2-98f15205" x="545.101005" y="602.311509"/>
<use xlink:href="#glyph-0-3-98f15205" x="552.101005" y="602.311509"/>
<use xlink:href="#glyph-0-1-98f15205" x="559.101006" y="602.311509"/>
<use xlink:href="#glyph-0-4-98f15205" x="566.885006" y="602.311509"/>
<use xlink:href="#glyph-0-5-98f15205" x="574.669006" y="602.311509"/>
<use xlink:href="#glyph-0-6-98f15205" x="582.453007" y="602.311509"/>
<use xlink:href="#glyph-0-7-98f15205" x="586.345005" y="602.311509"/>
<use xlink:href="#glyph-0-5-98f15205" x="593.345005" y="602.311509"/>
<use xlink:href="#glyph-0-8-98f15205" x="601.129006" y="602.311509"/>
<use xlink:href="#glyph-0-9-98f15205" x="605.791008" y="602.311509"/>
<use xlink:href="#glyph-0-10-98f15205" x="612.791008" y="602.311509"/>
<use xlink:href="#glyph-0-11-98f15205" x="615.89901" y="602.311509"/>
<use xlink:href="#glyph-0-12-98f15205" x="623.683007" y="602.311509"/>
</g>
<g fill="rgb(0%, 0%, 0%)" fill-opacity="1">
<use xlink:href="#glyph-1-0-98f15205" x="104.626956" y="583.895417"/>
<use xlink:href="#glyph-1-1-98f15205" x="110.131076" y="578.391297"/>
<use xlink:href="#glyph-1-2-98f15205" x="112.883134" y="575.639239"/>
</g>
<g fill="rgb(0%, 0%, 0%)" fill-opacity="1">
<use xlink:href="#glyph-2-0-98f15205" x="118.387254" y="570.135119"/>
</g>
<g fill="rgb(0%, 0%, 0%)" fill-opacity="1">
<use xlink:href="#glyph-3-0-98f15205" x="123.891373" y="564.631001"/>
</g>
<g fill="rgb(0%, 0%, 0%)" fill-opacity="1">
<use xlink:href="#glyph-4-0-98f15205" x="126.643433" y="561.878941"/>
</g>
<g fill="rgb(0%, 0%, 0%)" fill-opacity="1">
<use xlink:href="#glyph-5-0-98f15205" x="257.202709" y="583.895417"/>
</g>
<g fill="rgb(0%, 0%, 0%)" fill-opacity="1">
<use xlink:href="#glyph-2-1-98f15205" x="262.706829" y="578.391297"/>
</g>
<g fill="rgb(0%, 0%, 0%)" fill-opacity="1">
<use xlink:href="#glyph-6-0-98f15205" x="265.458887" y="575.639239"/>
<use xlink:href="#glyph-6-1-98f15205" x="270.963007" y="570.135119"/>
</g>
<g fill="rgb(0%, 0%, 0%)" fill-opacity="1">
<use xlink:href="#glyph-7-0-98f15205" x="276.467126" y="564.631001"/>
<use xlink:href="#glyph-7-1-98f15205" x="279.219186" y="561.878941"/>
</g>
<g fill="rgb(0%, 0%, 0%)" fill-opacity="1">
<use xlink:href="#glyph-6-2-98f15205" x="409.778485" y="583.895417"/>
<use xlink:href="#glyph-6-3-98f15205" x="415.282605" y="578.391297"/>
<use xlink:href="#glyph-6-0-98f15205" x="418.034663" y="575.639239"/>
</g>
<g fill="rgb(0%, 0%, 0%)" fill-opacity="1">
<use xlink:href="#glyph-8-0-98f15205" x="423.538783" y="570.135119"/>
</g>
<g fill="rgb(0%, 0%, 0%)" fill-opacity="1">
<use xlink:href="#glyph-7-0-98f15205" x="429.042902" y="564.631001"/>
<use xlink:href="#glyph-7-2-98f15205" x="431.794962" y="561.878941"/>
</g>
<g fill="rgb(0%, 0%, 0%)" fill-opacity="1">
<use xlink:href="#glyph-8-1-98f15205" x="562.354231" y="583.895417"/>
<use xlink:href="#glyph-8-2-98f15205" x="567.858351" y="578.391297"/>
<use xlink:href="#glyph-8-3-98f15205" x="570.610409" y="575.639239"/>
</g>
<g fill="rgb(0%, 0%, 0%)" fill-opacity="1">
<use xlink:href="#glyph-9-0-98f15205" x="576.114529" y="570.135119"/>
</g>
<g fill="rgb(0%, 0%, 0%)" fill-opacity="1">
<use xlink:href="#glyph-10-0-98f15205" x="581.618648" y="564.631001"/>
</g>
<g fill="rgb(0%, 0%, 0%)" fill-opacity="1">
<use xlink:href="#glyph-11-0-98f15205" x="584.370708" y="561.878941"/>
</g>
<g fill="rgb(0%, 0%, 0%)" fill-opacity="1">
<use xlink:href="#glyph-9-1-98f15205" x="714.929977" y="583.895417"/>
<use xlink:href="#glyph-9-2-98f15205" x="720.434096" y="578.391297"/>
<use xlink:href="#glyph-9-3-98f15205" x="723.186154" y="575.639239"/>
</g>
<g fill="rgb(0%, 0%, 0%)" fill-opacity="1">
<use xlink:href="#glyph-12-0-98f15205" x="728.690274" y="570.135119"/>
</g>
<g fill="rgb(0%, 0%, 0%)" fill-opacity="1">
<use xlink:href="#glyph-13-0-98f15205" x="734.194394" y="564.631001"/>
</g>
<g fill="rgb(0%, 0%, 0%)" fill-opacity="1">
<use xlink:href="#glyph-10-1-98f15205" x="736.946454" y="561.878941"/>
</g>
<g fill="rgb(0%, 0%, 0%)" fill-opacity="1">
<use xlink:href="#glyph-9-1-98f15205" x="867.505722" y="583.895417"/>
</g>
<g fill="rgb(0%, 0%, 0%)" fill-opacity="1">
<use xlink:href="#glyph-8-2-98f15205" x="873.009842" y="578.391297"/>
</g>
<g fill="rgb(0%, 0%, 0%)" fill-opacity="1">
<use xlink:href="#glyph-12-1-98f15205" x="875.7619" y="575.639239"/>
</g>
<g fill="rgb(0%, 0%, 0%)" fill-opacity="1">
<use xlink:href="#glyph-8-0-98f15205" x="881.26602" y="570.135119"/>
</g>
<g fill="rgb(0%, 0%, 0%)" fill-opacity="1">
<use xlink:href="#glyph-11-1-98f15205" x="886.770139" y="564.631001"/>
</g>
<g fill="rgb(0%, 0%, 0%)" fill-opacity="1">
<use xlink:href="#glyph-13-1-98f15205" x="889.522199" y="561.878941"/>
</g>
<g fill="rgb(0%, 0%, 0%)" fill-opacity="1">
<use xlink:href="#glyph-14-0-98f15205" x="1020.081529" y="583.895417"/>
</g>
<g fill="rgb(0%, 0%, 0%)" fill-opacity="1">
<use xlink:href="#glyph-15-0-98f15205" x="1025.585649" y="578.391297"/>
<use xlink:href="#glyph-15-1-98f15205" x="1028.337707" y="575.639239"/>
</g>
<g fill="rgb(0%, 0%, 0%)" fill-opacity="1">
<use xlink:href="#glyph-14-1-98f15205" x="1033.841827" y="570.135119"/>
</g>
<g fill="rgb(0%, 0%, 0%)" fill-opacity="1">
<use xlink:href="#glyph-16-0-98f15205" x="1039.345946" y="564.631001"/>
</g>
<g fill="rgb(0%, 0%, 0%)" fill-opacity="1">
<use xlink:href="#glyph-11-2-98f15205" x="1042.098006" y="561.878941"/>
</g>
<g fill="rgb(0%, 0%, 0%)" fill-opacity="1">
<use xlink:href="#glyph-17-0-98f15205" x="27.811995" y="343.114998"/>
</g>
<g fill="rgb(0%, 0%, 0%)" fill-opacity="1">
<use xlink:href="#glyph-18-0-98f15205" x="27.811996" y="340.006997"/>
</g>
<g fill="rgb(0%, 0%, 0%)" fill-opacity="1">
<use xlink:href="#glyph-19-0-98f15205" x="27.811996" y="332.223"/>
</g>
<g fill="rgb(0%, 0%, 0%)" fill-opacity="1">
<use xlink:href="#glyph-17-1-98f15205" x="27.811996" y="329.114999"/>
</g>
<g fill="rgb(0%, 0%, 0%)" fill-opacity="1">
<use xlink:href="#glyph-20-0-98f15205" x="27.811996" y="326.006997"/>
</g>
<g fill="rgb(0%, 0%, 0%)" fill-opacity="1">
<use xlink:href="#glyph-21-0-98f15205" x="27.811997" y="318.223"/>
</g>
<g fill="rgb(0%, 0%, 0%)" fill-opacity="1">
<use xlink:href="#glyph-22-0-98f15205" x="27.811997" y="314.331"/>
</g>
<g fill="rgb(0%, 0%, 0%)" fill-opacity="1">
<use xlink:href="#glyph-23-0-98f15205" x="27.811998" y="304.223003"/>
<use xlink:href="#glyph-23-1-98f15205" x="27.811998" y="296.439003"/>
</g>
<g fill="rgb(0%, 0%, 0%)" fill-opacity="1">
<use xlink:href="#glyph-24-0-98f15205" x="27.811999" y="293.331002"/>
</g>
<g fill="rgb(0%, 0%, 0%)" fill-opacity="1">
<use xlink:href="#glyph-25-0-98f15205" x="27.811999" y="290.223"/>
</g>
<g fill="rgb(0%, 0%, 0%)" fill-opacity="1">
<use xlink:href="#glyph-26-0-98f15205" x="27.811999" y="286.331002"/>
</g>
<g fill="rgb(0%, 0%, 0%)" fill-opacity="1">
<use xlink:href="#glyph-27-0-98f15205" x="27.811999" y="282.439005"/>
</g>
<g fill="rgb(0%, 0%, 0%)" fill-opacity="1">
<use xlink:href="#glyph-28-0-98f15205" x="27.811999" y="279.331004"/>
</g>
<g fill="rgb(0%, 0%, 0%)" fill-opacity="1">
<use xlink:href="#glyph-29-0-98f15205" x="27.812" y="267.669006"/>
</g>
<g fill="rgb(0%, 0%, 0%)" fill-opacity="1">
<use xlink:href="#glyph-30-0-98f15205" x="27.812" y="259.88501"/>
</g>
<g fill="rgb(0%, 0%, 0%)" fill-opacity="1">
<use xlink:href="#glyph-25-1-98f15205" x="27.812001" y="255.993011"/>
</g>
<g fill="rgb(0%, 0%, 0%)" fill-opacity="1">
<use xlink:href="#glyph-31-0-98f15205" x="27.812001" y="251.331011"/>
</g>
<g fill="rgb(0%, 0%, 0%)" fill-opacity="1">
<use xlink:href="#glyph-30-1-98f15205" x="27.812001" y="243.547014"/>
</g>
<g fill="rgb(0%, 0%, 0%)" fill-opacity="1">
<use xlink:href="#glyph-32-0-98f15205" x="27.812002" y="236.547014"/>
</g>
<g fill="rgb(0%, 0%, 0%)" fill-opacity="1">
<use xlink:href="#glyph-0-13-98f15205" x="35.864001" y="487.885915"/>
<use xlink:href="#glyph-0-14-98f15205" x="43.648001" y="487.885915"/>
<use xlink:href="#glyph-0-15-98f15205" x="51.432001" y="487.885915"/>
<use xlink:href="#glyph-0-15-98f15205" x="59.216" y="487.885915"/>
</g>
<g fill="rgb(0%, 0%, 0%)" fill-opacity="1">
<use xlink:href="#glyph-0-16-98f15205" x="35.864001" y="338.914436"/>
<use xlink:href="#glyph-0-15-98f15205" x="43.648001" y="338.914436"/>
<use xlink:href="#glyph-0-15-98f15205" x="51.432001" y="338.914436"/>
<use xlink:href="#glyph-0-15-98f15205" x="59.216" y="338.914436"/>
</g>
<g fill="rgb(0%, 0%, 0%)" fill-opacity="1">
<use xlink:href="#glyph-0-16-98f15205" x="35.864001" y="212.953684"/>
<use xlink:href="#glyph-0-14-98f15205" x="43.648001" y="212.953684"/>
<use xlink:href="#glyph-0-15-98f15205" x="51.432001" y="212.953684"/>
<use xlink:href="#glyph-0-15-98f15205" x="59.216" y="212.953684"/>
</g>
<g fill="rgb(0%, 0%, 0%)" fill-opacity="1">
<use xlink:href="#glyph-0-17-98f15205" x="35.864001" y="103.837017"/>
<use xlink:href="#glyph-0-15-98f15205" x="43.648001" y="103.837017"/>
<use xlink:href="#glyph-0-15-98f15205" x="51.432001" y="103.837017"/>
<use xlink:href="#glyph-0-15-98f15205" x="59.216" y="103.837017"/>
</g>
<g fill="rgb(0%, 0%, 0%)" fill-opacity="1">
<use xlink:href="#glyph-33-0-98f15205" x="344.768069" y="28.948009"/>
<use xlink:href="#glyph-33-1-98f15205" x="354.876071" y="28.948009"/>
<use xlink:href="#glyph-33-2-98f15205" x="362.660067" y="28.948009"/>
<use xlink:href="#glyph-33-1-98f15205" x="367.32207" y="28.948009"/>
<use xlink:href="#glyph-33-3-98f15205" x="375.106066" y="28.948009"/>
<use xlink:href="#glyph-33-2-98f15205" x="384.444064" y="28.948009"/>
<use xlink:href="#glyph-33-4-98f15205" x="389.106066" y="28.948009"/>
<use xlink:href="#glyph-33-5-98f15205" x="394.552066" y="28.948009"/>
<use xlink:href="#glyph-33-6-98f15205" x="403.106067" y="28.948009"/>
<use xlink:href="#glyph-33-2-98f15205" x="410.890078" y="28.948009"/>
<use xlink:href="#glyph-33-5-98f15205" x="415.552066" y="28.948009"/>
<use xlink:href="#glyph-33-4-98f15205" x="424.106082" y="28.948009"/>
<use xlink:href="#glyph-33-7-98f15205" x="429.552066" y="28.948009"/>
<use xlink:href="#glyph-33-8-98f15205" x="437.336063" y="28.948009"/>
<use xlink:href="#glyph-33-9-98f15205" x="445.120059" y="28.948009"/>
<use xlink:href="#glyph-33-10-98f15205" x="449.012057" y="28.948009"/>
<use xlink:href="#glyph-33-9-98f15205" x="452.904063" y="28.948009"/>
<use xlink:href="#glyph-33-11-98f15205" x="456.796062" y="28.948009"/>
<use xlink:href="#glyph-33-4-98f15205" x="467.68806" y="28.948009"/>
<use xlink:href="#glyph-33-12-98f15205" x="473.134067" y="28.948009"/>
<use xlink:href="#glyph-33-7-98f15205" x="481.688068" y="28.948009"/>
<use xlink:href="#glyph-33-4-98f15205" x="489.472064" y="28.948009"/>
<use xlink:href="#glyph-33-7-98f15205" x="494.918064" y="28.948009"/>
</g>
<g fill="rgb(0%, 0%, 0%)" fill-opacity="1">
<use xlink:href="#glyph-34-0-98f15205" x="502.70206" y="28.948009"/>
</g>
<g fill="rgb(0%, 0%, 0%)" fill-opacity="1">
<use xlink:href="#glyph-33-13-98f15205" x="511.256061" y="28.948009"/>
<use xlink:href="#glyph-33-14-98f15205" x="521.364063" y="28.948009"/>
<use xlink:href="#glyph-33-15-98f15205" x="529.918064" y="28.948009"/>
<use xlink:href="#glyph-33-16-98f15205" x="538.472065" y="28.948009"/>
<use xlink:href="#glyph-33-17-98f15205" x="542.364063" y="28.948009"/>
<use xlink:href="#glyph-33-0-98f15205" x="550.918064" y="28.948009"/>
<use xlink:href="#glyph-33-16-98f15205" x="561.026066" y="28.948009"/>
<use xlink:href="#glyph-33-6-98f15205" x="564.918064" y="28.948009"/>
<use xlink:href="#glyph-33-2-98f15205" x="572.702061" y="28.948009"/>
<use xlink:href="#glyph-33-18-98f15205" x="577.364063" y="28.948009"/>
<use xlink:href="#glyph-33-19-98f15205" x="585.14806" y="28.948009"/>
<use xlink:href="#glyph-33-14-98f15205" x="589.040058" y="28.948009"/>
<use xlink:href="#glyph-33-14-98f15205" x="597.594059" y="28.948009"/>
<use xlink:href="#glyph-33-20-98f15205" x="606.148045" y="28.948009"/>
<use xlink:href="#glyph-33-5-98f15205" x="613.932041" y="28.948009"/>
<use xlink:href="#glyph-33-21-98f15205" x="622.486027" y="28.948009"/>
<use xlink:href="#glyph-33-18-98f15205" x="631.040013" y="28.948009"/>
<use xlink:href="#glyph-33-15-98f15205" x="638.824009" y="28.948009"/>
<use xlink:href="#glyph-33-7-98f15205" x="647.377995" y="28.948009"/>
<use xlink:href="#glyph-33-17-98f15205" x="655.161992" y="28.948009"/>
<use xlink:href="#glyph-33-6-98f15205" x="663.715977" y="28.948009"/>
<use xlink:href="#glyph-33-22-98f15205" x="671.499974" y="28.948009"/>
<use xlink:href="#glyph-33-23-98f15205" x="680.05396" y="28.948009"/>
<use xlink:href="#glyph-33-1-98f15205" x="692.499974" y="28.948009"/>
<use xlink:href="#glyph-33-4-98f15205" x="700.283971" y="28.948009"/>
<use xlink:href="#glyph-33-20-98f15205" x="705.729985" y="28.948009"/>
<use xlink:href="#glyph-33-9-98f15205" x="713.513982" y="28.948009"/>
<use xlink:href="#glyph-33-10-98f15205" x="717.40598" y="28.948009"/>
<use xlink:href="#glyph-33-9-98f15205" x="721.297979" y="28.948009"/>
<use xlink:href="#glyph-33-24-98f15205" x="725.189977" y="28.948009"/>
<use xlink:href="#glyph-33-5-98f15205" x="729.081975" y="28.948009"/>
<use xlink:href="#glyph-33-19-98f15205" x="737.635961" y="28.948009"/>
<use xlink:href="#glyph-33-16-98f15205" x="741.527959" y="28.948009"/>
<use xlink:href="#glyph-33-1-98f15205" x="745.419957" y="28.948009"/>
<use xlink:href="#glyph-33-25-98f15205" x="753.203954" y="28.948009"/>
<use xlink:href="#glyph-33-26-98f15205" x="757.095952" y="28.948009"/>
<use xlink:href="#glyph-33-1-98f15205" x="767.987951" y="28.948009"/>
<use xlink:href="#glyph-33-19-98f15205" x="775.771947" y="28.948009"/>
<use xlink:href="#glyph-33-19-98f15205" x="779.663946" y="28.948009"/>
<use xlink:href="#glyph-33-25-98f15205" x="783.555944" y="28.948009"/>
<use xlink:href="#glyph-33-2-98f15205" x="787.447942" y="28.948009"/>
<use xlink:href="#glyph-33-16-98f15205" x="792.10993" y="28.948009"/>
<use xlink:href="#glyph-33-23-98f15205" x="796.001928" y="28.948009"/>
<use xlink:href="#glyph-33-7-98f15205" x="808.447942" y="28.948009"/>
</g>
<path fill="none" stroke-width="3" stroke-linecap="butt" stroke-linejoin="miter" stroke="rgb(4%, 51.999998%, 56.999999%)" stroke-opacity="1" stroke-miterlimit="2" d="M 122.773438 516.136719 L 275.347656 516.136719 L 427.925781 482.78125 L 580.5 482.78125 L 733.074219 58.863281 L 885.652344 516.136719 L 1038.226563 516.136719 "/>
<path fill-rule="nonzero" fill="rgb(4%, 51.999998%, 56.999999%)" fill-opacity="1" stroke-width="2" stroke-linecap="butt" stroke-linejoin="miter" stroke="rgb(100%, 100%, 100%)" stroke-opacity="1" stroke-miterlimit="2" d="M 128.058594 516.136719 C 128.058594 509.085938 117.484375 509.085938 117.484375 516.136719 C 117.484375 523.1875 128.058594 523.1875 128.058594 516.136719 Z M 128.058594 516.136719 "/>
<path fill-rule="nonzero" fill="rgb(4%, 51.999998%, 56.999999%)" fill-opacity="1" stroke-width="2" stroke-linecap="butt" stroke-linejoin="miter" stroke="rgb(100%, 100%, 100%)" stroke-opacity="1" stroke-miterlimit="2" d="M 280.636719 516.136719 C 280.636719 509.085938 270.0625 509.085938 270.0625 516.136719 C 270.0625 523.1875 280.636719 523.1875 280.636719 516.136719 Z M 280.636719 516.136719 "/>
<path fill-rule="nonzero" fill="rgb(4%, 51.999998%, 56.999999%)" fill-opacity="1" stroke-width="2" stroke-linecap="butt" stroke-linejoin="miter" stroke="rgb(100%, 100%, 100%)" stroke-opacity="1" stroke-miterlimit="2" d="M 433.210938 482.785156 C 433.210938 475.734375 422.636719 475.734375 422.636719 482.785156 C 422.636719 489.832031 433.210938 489.832031 433.210938 482.785156 Z M 433.210938 482.785156 "/>
<path fill-rule="nonzero" fill="rgb(4%, 51.999998%, 56.999999%)" fill-opacity="1" stroke-width="2" stroke-linecap="butt" stroke-linejoin="miter" stroke="rgb(100%, 100%, 100%)" stroke-opacity="1" stroke-miterlimit="2" d="M 585.789063 482.785156 C 585.789063 475.734375 575.210938 475.734375 575.210938 482.785156 C 575.210938 489.832031 585.789063 489.832031 585.789063 482.785156 Z M 585.789063 482.785156 "/>
<path fill-rule="nonzero" fill="rgb(4%, 51.999998%, 56.999999%)" fill-opacity="1" stroke-width="2" stroke-linecap="butt" stroke-linejoin="miter" stroke="rgb(100%, 100%, 100%)" stroke-opacity="1" stroke-miterlimit="2" d="M 738.363281 58.863281 C 738.363281 51.8125 727.789063 51.8125 727.789063 58.863281 C 727.789063 65.914063 738.363281 65.914063 738.363281 58.863281 Z M 738.363281 58.863281 "/>
<path fill-rule="nonzero" fill="rgb(4%, 51.999998%, 56.999999%)" fill-opacity="1" stroke-width="2" stroke-linecap="butt" stroke-linejoin="miter" stroke="rgb(100%, 100%, 100%)" stroke-opacity="1" stroke-miterlimit="2" d="M 890.9375 516.136719 C 890.9375 509.085938 880.363281 509.085938 880.363281 516.136719 C 880.363281 523.1875 890.9375 523.1875 890.9375 516.136719 Z M 890.9375 516.136719 "/>
<path fill-rule="nonzero" fill="rgb(4%, 51.999998%, 56.999999%)" fill-opacity="1" stroke-width="2" stroke-linecap="butt" stroke-linejoin="miter" stroke="rgb(100%, 100%, 100%)" stroke-opacity="1" stroke-miterlimit="2" d="M 1043.515625 516.136719 C 1043.515625 509.085938 1032.941406 509.085938 1032.941406 516.136719 C 1032.941406 523.1875 1043.515625 523.1875 1043.515625 516.136719 Z M 1043.515625 516.136719 "/>
<path fill="none" stroke-width="1" stroke-linecap="butt" stroke-linejoin="miter" stroke="rgb(0%, 0%, 0%)" stroke-opacity="1" stroke-miterlimit="1.154701" d="M 122.773438 539.5 L 122.773438 544.5 "/>
<path fill="none" stroke-width="1" stroke-linecap="butt" stroke-linejoin="miter" stroke="rgb(0%, 0%, 0%)" stroke-opacity="1" stroke-miterlimit="1.154701" d="M 275.347656 539.5 L 275.347656 544.5 "/>
<path fill="none" stroke-width="1" stroke-linecap="butt" stroke-linejoin="miter" stroke="rgb(0%, 0%, 0%)" stroke-opacity="1" stroke-miterlimit="1.154701" d="M 427.925781 539.5 L 427.925781 544.5 "/>
<path fill="none" stroke-width="1" stroke-linecap="butt" stroke-linejoin="miter" stroke="rgb(0%, 0%, 0%)" stroke-opacity="1" stroke-miterlimit="1.154701" d="M 580.5 539.5 L 580.5 544.5 "/>
<path fill="none" stroke-width="1" stroke-linecap="butt" stroke-linejoin="miter" stroke="rgb(0%, 0%, 0%)" stroke-opacity="1" stroke-miterlimit="1.154701" d="M 733.074219 539.5 L 733.074219 544.5 "/>
<path fill="none" stroke-width="1" stroke-linecap="butt" stroke-linejoin="miter" stroke="rgb(0%, 0%, 0%)" stroke-opacity="1" stroke-miterlimit="1.154701" d="M 885.652344 539.5 L 885.652344 544.5 "/>
<path fill="none" stroke-width="1" stroke-linecap="butt" stroke-linejoin="miter" stroke="rgb(0%, 0%, 0%)" stroke-opacity="1" stroke-miterlimit="1.154701" d="M 1038.226563 539.5 L 1038.226563 544.5 "/>
<path fill="none" stroke-width="1" stroke-linecap="butt" stroke-linejoin="miter" stroke="rgb(0%, 0%, 0%)" stroke-opacity="1" stroke-miterlimit="1.154701" d="M 76.5 482.78125 L 71.5 482.78125 "/>
<path fill="none" stroke-width="1" stroke-linecap="butt" stroke-linejoin="miter" stroke="rgb(0%, 0%, 0%)" stroke-opacity="1" stroke-miterlimit="1.154701" d="M 76.5 333.8125 L 71.5 333.8125 "/>
<path fill="none" stroke-width="1" stroke-linecap="butt" stroke-linejoin="miter" stroke="rgb(0%, 0%, 0%)" stroke-opacity="1" stroke-miterlimit="1.154701" d="M 76.5 207.851563 L 71.5 207.851563 "/>
<path fill="none" stroke-width="1" stroke-linecap="butt" stroke-linejoin="miter" stroke="rgb(0%, 0%, 0%)" stroke-opacity="1" stroke-miterlimit="1.154701" d="M 76.5 98.734375 L 71.5 98.734375 "/>
<path fill="none" stroke-width="1" stroke-linecap="butt" stroke-linejoin="miter" stroke="rgb(0%, 0%, 0%)" stroke-opacity="1" stroke-miterlimit="1.154701" d="M 76.5 539 L 1084.5 539 "/>
<path fill="none" stroke-width="1" stroke-linecap="butt" stroke-linejoin="miter" stroke="rgb(0%, 0%, 0%)" stroke-opacity="1" stroke-miterlimit="1.154701" d="M 77 539.5 L 77 35.5 "/>
<path fill="none" stroke-width="1" stroke-linecap="butt" stroke-linejoin="miter" stroke="rgb(0%, 0%, 0%)" stroke-opacity="1" stroke-miterlimit="1.154701" d="M 76.5 36 L 1084.5 36 "/>
<path fill="none" stroke-width="1" stroke-linecap="butt" stroke-linejoin="miter" stroke="rgb(0%, 0%, 0%)" stroke-opacity="1" stroke-miterlimit="1.154701" d="M 1084 539.5 L 1084 35.5 "/>
</svg>
